%
M48
M72
T01C0.02362
T02C0.02500
T03C0.03504
T04C0.04000
T05C0.05000
T06C0.07000
T07C0.07913
T08C0.12500
%
T01
X50000Y51500
X62000Y56500
X77500Y47500
X95000Y64000
X73000Y74000
X127000Y121000
X125500Y164000
X116000Y164000
X136000Y164000
X143000Y174500
X151500Y164000
X161500Y164000
X171000Y164000
X185000Y164500
X196500Y164500
X196500Y156500
X207500Y166000
X211000Y158500
X216500Y166000
X225000Y166000
X234500Y165500
X234500Y159500
X246500Y152000
X256000Y152000
X267700Y150200
X276000Y150000
X264400Y167400
X238500Y184500
X234500Y174500
X201000Y214500
X212000Y224500
X221000Y234500
X228500Y244500
X229500Y260000
X243500Y259500
X229500Y279500
X234000Y288500
X231000Y298000
X221000Y297000
X230250Y311750
X242500Y299500
X259500Y289500
X242000Y329500
X225000Y327000
X221000Y334500
X212000Y323500
X202000Y328000
X186000Y332500
X186000Y339000
X207000Y355000
X221500Y368500
X221500Y382500
X242500Y383000
X259000Y395500
X237500Y406500
X242000Y429500
X219500Y437500
X222500Y455500
X244500Y471500
X254500Y471500
X289500Y469500
X297500Y469500
X305500Y469500
X313500Y469500
X321500Y469500
X321500Y460500
X313500Y460500
X305500Y460500
X297500Y460500
X289500Y460500
X233000Y507500
X151000Y488000
X80500Y445500
X80500Y434500
X75500Y419000
X70000Y409500
X70000Y399500
X70000Y389500
X70000Y380000
X70000Y369500
X116000Y339500
X116000Y332000
X145500Y307000
X153500Y334500
X153500Y341500
X151250Y348250
X178000Y307000
X215000Y277000
X170000Y255000
X189000Y204000
X181500Y194500
X124000Y255000
X71000Y289500
X53500Y289500
X57500Y232000
X182000Y80000
X198000Y66000
X211000Y66000
X226000Y66000
X236500Y56500
X238500Y67500
X247000Y56000
X247000Y46000
X257500Y51500
X266500Y56000
X272000Y56000
X281000Y52000
X282000Y74000
X281000Y80500
X271000Y116000
X244500Y116000
X233500Y80000
X314000Y59500
X322000Y82500
X143000Y64000
X259500Y342500
X237000Y355000
X220000Y417500
X68000Y452000
X70500Y518500
X58500Y518500
T02
X148500Y319000
X149000Y296500
X277000Y139500
X290500Y139500
X286500Y120500
X276500Y120500
T03
X186000Y464500
X176000Y464500
X116000Y479500
X106000Y479500
T04
X106000Y447000
X116000Y447000
X126000Y447000
X81000Y404500
X81000Y394500
X81000Y384500
X81000Y374500
X81000Y364500
X81000Y354500
X81000Y344500
X81000Y334500
X81000Y314500
X81000Y304500
X81000Y294500
X81000Y284500
X81000Y274500
X81000Y264500
X81000Y254500
X81000Y244500
X81000Y224500
X81000Y214500
X81000Y204500
X81000Y194500
X81000Y184500
X81000Y174500
X81000Y164500
X81000Y154500
X101000Y144500
X101000Y134500
X111000Y134500
X111000Y144500
X121000Y144500
X121000Y134500
X131000Y134500
X141000Y134500
X141000Y144500
X131000Y144500
X151000Y144500
X151000Y134500
X161000Y134500
X161000Y144500
X171000Y144500
X171000Y134500
X181000Y134500
X191000Y134500
X191000Y144500
X181000Y144500
X201000Y144500
X201000Y134500
X211000Y134500
X211000Y144500
X221000Y144500
X231000Y144500
X231000Y134500
X221000Y134500
X241000Y134500
X241000Y144500
X251000Y144500
X251000Y134500
X261000Y134500
X261000Y144500
X271000Y144500
X271000Y134500
X271000Y174500
X271000Y184500
X271000Y194500
X271000Y204500
X271000Y214500
X271000Y224500
X271000Y234500
X271000Y244500
X271000Y264500
X271000Y274500
X271000Y284500
X271000Y294500
X271000Y304500
X271000Y314500
X271000Y324500
X271000Y334500
X271000Y350500
X271000Y360500
X271000Y370500
X271000Y380500
X271000Y390500
X271000Y400500
X271000Y410500
X271000Y420500
X271000Y430500
X271000Y440500
X251000Y440500
X251000Y430500
X251000Y420500
X251000Y410500
X251000Y400500
X251000Y390500
X251000Y380500
X251000Y370500
X251000Y360500
X251000Y350500
X251000Y334500
X251000Y324500
X251000Y314500
X251000Y304500
X251000Y294500
X251000Y284500
X251000Y274500
X251000Y264500
X251000Y244500
X251000Y234500
X251000Y224500
X251000Y214500
X251000Y204500
X251000Y194500
X251000Y184500
X251000Y174500
X63000Y141000
X63000Y131000
X63000Y121000
X53000Y121000
X53000Y131000
X53000Y141000
X61000Y154500
X61000Y164500
X61000Y174500
X61000Y184500
X61000Y194500
X61000Y204500
X61000Y214500
X61000Y224500
X61000Y264500
X61000Y274500
X61000Y284500
X61000Y294500
X61000Y304500
X61000Y314500
X61000Y334500
X61000Y344500
X61000Y354500
X61000Y364500
X61000Y374500
X61000Y384500
X61000Y394500
X61000Y404500
X106000Y377000
X116000Y377000
X126000Y377000
X176000Y377000
X186000Y377000
X196000Y377000
X196000Y447000
X186000Y447000
X176000Y447000
T05
X31000Y54500
X31000Y64500
X31000Y74500
X31000Y84500
X31000Y104500
X31000Y114500
X31000Y124500
X31000Y134500
X31000Y154500
X31000Y164500
X31000Y174500
X31000Y184500
X31000Y204500
X31000Y214500
X31000Y224500
X31000Y234500
X31000Y254500
X31000Y264500
X31000Y274500
X31000Y284500
X31000Y304500
X31000Y314500
X31000Y324500
X31000Y334500
X31000Y354500
X31000Y364500
X31000Y374500
X31000Y384500
X31000Y404500
X31000Y414500
X31000Y424500
X31000Y434500
X301000Y434500
X301000Y424500
X301000Y414500
X301000Y404500
X301000Y384500
X301000Y374500
X301000Y364500
X301000Y354500
X301000Y334500
X301000Y324500
X301000Y314500
X301000Y304500
X301000Y284500
X301000Y274500
X301000Y264500
X301000Y254500
X301000Y234500
X301000Y224500
X301000Y214500
X301000Y204500
X301000Y184500
X301000Y174500
X301000Y164500
X301000Y154500
X301000Y134500
X301000Y124500
X301000Y114500
X301000Y104500
X301000Y84500
X301000Y74500
X301000Y64500
X301000Y54500
X281000Y34500
X271000Y34500
X261000Y34500
X251000Y34500
X231000Y34500
X221000Y34500
X211000Y34500
X201000Y34500
X181000Y34500
X171000Y34500
X161000Y34500
X151000Y34500
X131000Y34500
X121000Y34500
X111000Y34500
X101000Y34500
X81000Y34500
X71000Y34500
X61000Y34500
X51000Y34500
X51000Y99500
X61000Y99500
X71000Y99500
X81000Y99500
X101000Y99500
X111000Y99500
X121000Y99500
X131000Y99500
X151000Y99500
X161000Y99500
X171000Y99500
X181000Y99500
X201000Y99500
X211000Y99500
X221000Y99500
X231000Y99500
X251000Y99500
X261000Y99500
X271000Y99500
X281000Y99500
T06
X321000Y497500
X311000Y507500
X291000Y507500
X291000Y525000
X270500Y525000
X270500Y507500
T07
X206000Y484500
X166000Y484500
X136000Y499500
X96000Y499500
T08
X81000Y459500
X61000Y459500
X101000Y254500
X191000Y254500
X211000Y254500
X271000Y159500
X81000Y134500
X251000Y454500
X271000Y454500
M30
