G75*
%MOIN*%
%OFA0B0*%
%FSLAX25Y25*%
%IPPOS*%
%LPD*%
%AMOC8*
5,1,8,0,0,1.08239X$1,22.5*
%
%ADD10C,0.08300*%
%ADD11C,0.06800*%
%ADD12C,0.13300*%
%ADD13C,0.14580*%
%ADD14C,0.07887*%
%ADD15R,0.07887X0.07887*%
%ADD16C,0.01185*%
%ADD17C,0.11300*%
%ADD18C,0.04762*%
%ADD19C,0.04900*%
D10*
X0031000Y0054500D03*
X0031000Y0064500D03*
X0031000Y0074500D03*
X0031000Y0084500D03*
X0031000Y0104500D03*
X0031000Y0114500D03*
X0031000Y0124500D03*
X0031000Y0134500D03*
X0031000Y0154500D03*
X0031000Y0164500D03*
X0031000Y0174500D03*
X0031000Y0184500D03*
X0031000Y0204500D03*
X0031000Y0214500D03*
X0031000Y0224500D03*
X0031000Y0234500D03*
X0031000Y0254500D03*
X0031000Y0264500D03*
X0031000Y0274500D03*
X0031000Y0284500D03*
X0031000Y0304500D03*
X0031000Y0314500D03*
X0031000Y0324500D03*
X0031000Y0334500D03*
X0031000Y0354500D03*
X0031000Y0364500D03*
X0031000Y0374500D03*
X0031000Y0384500D03*
X0031000Y0404500D03*
X0031000Y0414500D03*
X0031000Y0424500D03*
X0031000Y0434500D03*
X0301000Y0434500D03*
X0301000Y0424500D03*
X0301000Y0414500D03*
X0301000Y0404500D03*
X0301000Y0384500D03*
X0301000Y0374500D03*
X0301000Y0364500D03*
X0301000Y0354500D03*
X0301000Y0334500D03*
X0301000Y0324500D03*
X0301000Y0314500D03*
X0301000Y0304500D03*
X0301000Y0284500D03*
X0301000Y0274500D03*
X0301000Y0264500D03*
X0301000Y0254500D03*
X0301000Y0234500D03*
X0301000Y0224500D03*
X0301000Y0214500D03*
X0301000Y0204500D03*
X0301000Y0184500D03*
X0301000Y0174500D03*
X0301000Y0164500D03*
X0301000Y0154500D03*
X0301000Y0134500D03*
X0301000Y0124500D03*
X0301000Y0114500D03*
X0301000Y0104500D03*
X0301000Y0084500D03*
X0301000Y0074500D03*
X0301000Y0064500D03*
X0301000Y0054500D03*
X0281000Y0034500D03*
X0271000Y0034500D03*
X0261000Y0034500D03*
X0251000Y0034500D03*
X0231000Y0034500D03*
X0221000Y0034500D03*
X0211000Y0034500D03*
X0201000Y0034500D03*
X0181000Y0034500D03*
X0171000Y0034500D03*
X0161000Y0034500D03*
X0151000Y0034500D03*
X0131000Y0034500D03*
X0121000Y0034500D03*
X0111000Y0034500D03*
X0101000Y0034500D03*
X0081000Y0034500D03*
X0071000Y0034500D03*
X0061000Y0034500D03*
X0051000Y0034500D03*
X0051000Y0099500D03*
X0061000Y0099500D03*
X0071000Y0099500D03*
X0081000Y0099500D03*
X0101000Y0099500D03*
X0111000Y0099500D03*
X0121000Y0099500D03*
X0131000Y0099500D03*
X0151000Y0099500D03*
X0161000Y0099500D03*
X0171000Y0099500D03*
X0181000Y0099500D03*
X0201000Y0099500D03*
X0211000Y0099500D03*
X0221000Y0099500D03*
X0231000Y0099500D03*
X0251000Y0099500D03*
X0261000Y0099500D03*
X0271000Y0099500D03*
X0281000Y0099500D03*
D11*
X0271000Y0134500D03*
X0271000Y0144500D03*
X0261000Y0144500D03*
X0261000Y0134500D03*
X0251000Y0134500D03*
X0251000Y0144500D03*
X0241000Y0144500D03*
X0241000Y0134500D03*
X0231000Y0134500D03*
X0221000Y0134500D03*
X0221000Y0144500D03*
X0231000Y0144500D03*
X0211000Y0144500D03*
X0211000Y0134500D03*
X0201000Y0134500D03*
X0201000Y0144500D03*
X0191000Y0144500D03*
X0181000Y0144500D03*
X0181000Y0134500D03*
X0191000Y0134500D03*
X0171000Y0134500D03*
X0171000Y0144500D03*
X0161000Y0144500D03*
X0161000Y0134500D03*
X0151000Y0134500D03*
X0151000Y0144500D03*
X0141000Y0144500D03*
X0131000Y0144500D03*
X0131000Y0134500D03*
X0141000Y0134500D03*
X0121000Y0134500D03*
X0121000Y0144500D03*
X0111000Y0144500D03*
X0111000Y0134500D03*
X0101000Y0134500D03*
X0101000Y0144500D03*
X0081000Y0154500D03*
X0081000Y0164500D03*
X0081000Y0174500D03*
X0081000Y0184500D03*
X0081000Y0194500D03*
X0081000Y0204500D03*
X0081000Y0214500D03*
X0081000Y0224500D03*
X0081000Y0244500D03*
X0081000Y0254500D03*
X0081000Y0264500D03*
X0081000Y0274500D03*
X0081000Y0284500D03*
X0081000Y0294500D03*
X0081000Y0304500D03*
X0081000Y0314500D03*
X0081000Y0334500D03*
X0081000Y0344500D03*
X0081000Y0354500D03*
X0081000Y0364500D03*
X0081000Y0374500D03*
X0081000Y0384500D03*
X0081000Y0394500D03*
X0081000Y0404500D03*
X0061000Y0404500D03*
X0061000Y0394500D03*
X0061000Y0384500D03*
X0061000Y0374500D03*
X0061000Y0364500D03*
X0061000Y0354500D03*
X0061000Y0344500D03*
X0061000Y0334500D03*
X0061000Y0314500D03*
X0061000Y0304500D03*
X0061000Y0294500D03*
X0061000Y0284500D03*
X0061000Y0274500D03*
X0061000Y0264500D03*
X0061000Y0224500D03*
X0061000Y0214500D03*
X0061000Y0204500D03*
X0061000Y0194500D03*
X0061000Y0184500D03*
X0061000Y0174500D03*
X0061000Y0164500D03*
X0061000Y0154500D03*
X0063000Y0141000D03*
X0063000Y0131000D03*
X0063000Y0121000D03*
X0053000Y0121000D03*
X0053000Y0131000D03*
X0053000Y0141000D03*
X0251000Y0174500D03*
X0251000Y0184500D03*
X0251000Y0194500D03*
X0251000Y0204500D03*
X0251000Y0214500D03*
X0251000Y0224500D03*
X0251000Y0234500D03*
X0251000Y0244500D03*
X0251000Y0264500D03*
X0251000Y0274500D03*
X0251000Y0284500D03*
X0251000Y0294500D03*
X0251000Y0304500D03*
X0251000Y0314500D03*
X0251000Y0324500D03*
X0251000Y0334500D03*
X0251000Y0350500D03*
X0251000Y0360500D03*
X0251000Y0370500D03*
X0251000Y0380500D03*
X0251000Y0390500D03*
X0251000Y0400500D03*
X0251000Y0410500D03*
X0251000Y0420500D03*
X0251000Y0430500D03*
X0251000Y0440500D03*
X0271000Y0440500D03*
X0271000Y0430500D03*
X0271000Y0420500D03*
X0271000Y0410500D03*
X0271000Y0400500D03*
X0271000Y0390500D03*
X0271000Y0380500D03*
X0271000Y0370500D03*
X0271000Y0360500D03*
X0271000Y0350500D03*
X0271000Y0334500D03*
X0271000Y0324500D03*
X0271000Y0314500D03*
X0271000Y0304500D03*
X0271000Y0294500D03*
X0271000Y0284500D03*
X0271000Y0274500D03*
X0271000Y0264500D03*
X0271000Y0244500D03*
X0271000Y0234500D03*
X0271000Y0224500D03*
X0271000Y0214500D03*
X0271000Y0204500D03*
X0271000Y0194500D03*
X0271000Y0184500D03*
X0271000Y0174500D03*
X0196000Y0377000D03*
X0186000Y0377000D03*
X0176000Y0377000D03*
X0126000Y0377000D03*
X0116000Y0377000D03*
X0106000Y0377000D03*
X0106000Y0447000D03*
X0116000Y0447000D03*
X0126000Y0447000D03*
X0176000Y0447000D03*
X0186000Y0447000D03*
X0196000Y0447000D03*
D12*
X0251000Y0454500D03*
X0271000Y0454500D03*
X0211000Y0254500D03*
X0191000Y0254500D03*
X0101000Y0254500D03*
X0081000Y0134500D03*
X0271000Y0159500D03*
X0081000Y0459500D03*
X0061000Y0459500D03*
D13*
X0096000Y0499500D03*
X0136000Y0499500D03*
X0166000Y0484500D03*
X0206000Y0484500D03*
D14*
X0176000Y0464500D03*
X0106000Y0479500D03*
D15*
X0116000Y0479500D03*
X0186000Y0464500D03*
D16*
X0162426Y0087428D02*
X0159660Y0087428D01*
X0159660Y0091572D01*
X0162426Y0091572D01*
X0162426Y0087428D01*
X0162426Y0088612D02*
X0159660Y0088612D01*
X0159660Y0089796D02*
X0162426Y0089796D01*
X0162426Y0090980D02*
X0159660Y0090980D01*
X0155340Y0087428D02*
X0152574Y0087428D01*
X0152574Y0091572D01*
X0155340Y0091572D01*
X0155340Y0087428D01*
X0155340Y0088612D02*
X0152574Y0088612D01*
X0152574Y0089796D02*
X0155340Y0089796D01*
X0155340Y0090980D02*
X0152574Y0090980D01*
X0112426Y0085928D02*
X0109660Y0085928D01*
X0109660Y0090072D01*
X0112426Y0090072D01*
X0112426Y0085928D01*
X0112426Y0087112D02*
X0109660Y0087112D01*
X0109660Y0088296D02*
X0112426Y0088296D01*
X0112426Y0089480D02*
X0109660Y0089480D01*
X0105340Y0085928D02*
X0102574Y0085928D01*
X0102574Y0090072D01*
X0105340Y0090072D01*
X0105340Y0085928D01*
X0105340Y0087112D02*
X0102574Y0087112D01*
X0102574Y0088296D02*
X0105340Y0088296D01*
X0105340Y0089480D02*
X0102574Y0089480D01*
X0102574Y0020928D02*
X0105340Y0020928D01*
X0102574Y0020928D02*
X0102574Y0025072D01*
X0105340Y0025072D01*
X0105340Y0020928D01*
X0105340Y0022112D02*
X0102574Y0022112D01*
X0102574Y0023296D02*
X0105340Y0023296D01*
X0105340Y0024480D02*
X0102574Y0024480D01*
X0109660Y0020928D02*
X0112426Y0020928D01*
X0109660Y0020928D02*
X0109660Y0025072D01*
X0112426Y0025072D01*
X0112426Y0020928D01*
X0112426Y0022112D02*
X0109660Y0022112D01*
X0109660Y0023296D02*
X0112426Y0023296D01*
X0112426Y0024480D02*
X0109660Y0024480D01*
X0202574Y0020928D02*
X0205340Y0020928D01*
X0202574Y0020928D02*
X0202574Y0025072D01*
X0205340Y0025072D01*
X0205340Y0020928D01*
X0205340Y0022112D02*
X0202574Y0022112D01*
X0202574Y0023296D02*
X0205340Y0023296D01*
X0205340Y0024480D02*
X0202574Y0024480D01*
X0209660Y0020928D02*
X0212426Y0020928D01*
X0209660Y0020928D02*
X0209660Y0025072D01*
X0212426Y0025072D01*
X0212426Y0020928D01*
X0212426Y0022112D02*
X0209660Y0022112D01*
X0209660Y0023296D02*
X0212426Y0023296D01*
X0212426Y0024480D02*
X0209660Y0024480D01*
X0252574Y0087428D02*
X0255340Y0087428D01*
X0252574Y0087428D02*
X0252574Y0091572D01*
X0255340Y0091572D01*
X0255340Y0087428D01*
X0255340Y0088612D02*
X0252574Y0088612D01*
X0252574Y0089796D02*
X0255340Y0089796D01*
X0255340Y0090980D02*
X0252574Y0090980D01*
X0259660Y0087428D02*
X0262426Y0087428D01*
X0259660Y0087428D02*
X0259660Y0091572D01*
X0262426Y0091572D01*
X0262426Y0087428D01*
X0262426Y0088612D02*
X0259660Y0088612D01*
X0259660Y0089796D02*
X0262426Y0089796D01*
X0262426Y0090980D02*
X0259660Y0090980D01*
D17*
X0321000Y0497500D03*
X0311000Y0507500D03*
X0291000Y0507500D03*
X0291000Y0525000D03*
X0270500Y0525000D03*
X0270500Y0507500D03*
D18*
X0233000Y0507500D03*
X0244500Y0471500D03*
X0254500Y0471500D03*
X0289500Y0469500D03*
X0297500Y0469500D03*
X0305500Y0469500D03*
X0313500Y0469500D03*
X0321500Y0469500D03*
X0321500Y0460500D03*
X0313500Y0460500D03*
X0305500Y0460500D03*
X0297500Y0460500D03*
X0289500Y0460500D03*
X0242000Y0429500D03*
X0237500Y0406500D03*
X0259000Y0395500D03*
X0242500Y0383000D03*
X0221500Y0382500D03*
X0221500Y0368500D03*
X0207000Y0355000D03*
X0221000Y0334500D03*
X0225000Y0327000D03*
X0212000Y0323500D03*
X0202000Y0328000D03*
X0186000Y0332500D03*
X0186000Y0339000D03*
X0153500Y0341500D03*
X0153500Y0334500D03*
X0151250Y0348250D03*
X0116000Y0339500D03*
X0116000Y0332000D03*
X0145500Y0307000D03*
X0178000Y0307000D03*
X0215000Y0277000D03*
X0229500Y0279500D03*
X0234000Y0288500D03*
X0231000Y0298000D03*
X0221000Y0297000D03*
X0230250Y0311750D03*
X0242500Y0299500D03*
X0259500Y0289500D03*
X0243500Y0259500D03*
X0229500Y0260000D03*
X0228500Y0244500D03*
X0221000Y0234500D03*
X0212000Y0224500D03*
X0201000Y0214500D03*
X0189000Y0204000D03*
X0181500Y0194500D03*
X0185000Y0164500D03*
X0196500Y0164500D03*
X0196500Y0156500D03*
X0207500Y0166000D03*
X0211000Y0158500D03*
X0216500Y0166000D03*
X0225000Y0166000D03*
X0234500Y0165500D03*
X0234500Y0159500D03*
X0246500Y0152000D03*
X0256000Y0152000D03*
X0267700Y0150200D03*
X0276000Y0150000D03*
X0264400Y0167400D03*
X0238500Y0184500D03*
X0234500Y0174500D03*
X0244500Y0116000D03*
X0271000Y0116000D03*
X0281000Y0080500D03*
X0282000Y0074000D03*
X0272000Y0056000D03*
X0266500Y0056000D03*
X0257500Y0051500D03*
X0247000Y0056000D03*
X0238500Y0067500D03*
X0236500Y0056500D03*
X0226000Y0066000D03*
X0233500Y0080000D03*
X0211000Y0066000D03*
X0198000Y0066000D03*
X0182000Y0080000D03*
X0143000Y0064000D03*
X0095000Y0064000D03*
X0077500Y0047500D03*
X0062000Y0056500D03*
X0050000Y0051500D03*
X0073000Y0074000D03*
X0127000Y0121000D03*
X0125500Y0164000D03*
X0116000Y0164000D03*
X0136000Y0164000D03*
X0143000Y0174500D03*
X0151500Y0164000D03*
X0161500Y0164000D03*
X0171000Y0164000D03*
X0170000Y0255000D03*
X0124000Y0255000D03*
X0071000Y0289500D03*
X0053500Y0289500D03*
X0057500Y0232000D03*
X0070000Y0369500D03*
X0070000Y0380000D03*
X0070000Y0389500D03*
X0070000Y0399500D03*
X0070000Y0409500D03*
X0075500Y0419000D03*
X0080500Y0434500D03*
X0080500Y0445500D03*
X0068000Y0452000D03*
X0070500Y0518500D03*
X0058500Y0518500D03*
X0151000Y0488000D03*
X0219500Y0437500D03*
X0222500Y0455500D03*
X0220000Y0417500D03*
X0237000Y0355000D03*
X0259500Y0342500D03*
X0242000Y0329500D03*
X0322000Y0082500D03*
X0314000Y0059500D03*
X0281000Y0052000D03*
X0247000Y0046000D03*
D19*
X0276500Y0120500D03*
X0286500Y0120500D03*
X0290500Y0139500D03*
X0277000Y0139500D03*
X0149000Y0296500D03*
X0148500Y0319000D03*
M02*
