G75*
%MOIN*%
%OFA0B0*%
%FSLAX25Y25*%
%IPPOS*%
%LPD*%
%AMOC8*
5,1,8,0,0,1.08239X$1,22.5*
%
%ADD10R,0.05000X0.02500*%
%ADD11R,0.07087X0.04724*%
%ADD12R,0.03150X0.05512*%
%ADD13R,0.07087X0.08661*%
%ADD14R,0.03150X0.04724*%
%ADD15C,0.00945*%
%ADD16R,0.03937X0.04331*%
%ADD17R,0.04331X0.03937*%
%ADD18R,0.04600X0.06300*%
%ADD19R,0.05118X0.10236*%
%ADD20R,0.04724X0.04724*%
%ADD21R,0.03700X0.03000*%
%ADD22R,0.09449X0.07087*%
%ADD23R,0.04134X0.04528*%
%ADD24C,0.00984*%
D10*
X0122500Y0329500D03*
X0122500Y0334500D03*
X0122500Y0339500D03*
X0122500Y0344500D03*
X0144500Y0344500D03*
X0144500Y0339500D03*
X0144500Y0334500D03*
X0144500Y0329500D03*
X0192500Y0329500D03*
X0192500Y0334500D03*
X0192500Y0339500D03*
X0192500Y0344500D03*
X0214500Y0344500D03*
X0214500Y0339500D03*
X0214500Y0334500D03*
X0214500Y0329500D03*
D11*
X0206079Y0312000D03*
X0206079Y0302000D03*
X0206079Y0292000D03*
X0206079Y0282000D03*
X0165921Y0282000D03*
X0165921Y0292000D03*
X0165921Y0302000D03*
X0165921Y0312000D03*
X0136079Y0312000D03*
X0136079Y0302000D03*
X0136079Y0292000D03*
X0136079Y0282000D03*
X0095921Y0282000D03*
X0095921Y0292000D03*
X0095921Y0302000D03*
X0095921Y0312000D03*
D12*
X0097594Y0342295D03*
X0103500Y0342295D03*
X0109406Y0342295D03*
X0167594Y0342295D03*
X0173500Y0342295D03*
X0179406Y0342295D03*
D13*
X0173500Y0330169D03*
X0103500Y0330169D03*
D14*
X0104543Y0352000D03*
X0097457Y0352000D03*
X0117457Y0412000D03*
X0124543Y0412000D03*
X0124543Y0422000D03*
X0117457Y0422000D03*
X0117457Y0432000D03*
X0124543Y0432000D03*
X0187457Y0432000D03*
X0194543Y0432000D03*
X0194543Y0422000D03*
X0187457Y0422000D03*
X0187457Y0412000D03*
X0194543Y0412000D03*
X0174543Y0352000D03*
X0167457Y0352000D03*
X0217457Y0319500D03*
X0224543Y0319500D03*
X0224543Y0309500D03*
X0217457Y0309500D03*
D15*
X0218560Y0352708D02*
X0216354Y0352708D01*
X0216354Y0356292D01*
X0218560Y0356292D01*
X0218560Y0352708D01*
X0218560Y0353652D02*
X0216354Y0353652D01*
X0216354Y0354596D02*
X0218560Y0354596D01*
X0218560Y0355540D02*
X0216354Y0355540D01*
X0223440Y0352708D02*
X0225646Y0352708D01*
X0223440Y0352708D02*
X0223440Y0356292D01*
X0225646Y0356292D01*
X0225646Y0352708D01*
X0225646Y0353652D02*
X0223440Y0353652D01*
X0223440Y0354596D02*
X0225646Y0354596D01*
X0225646Y0355540D02*
X0223440Y0355540D01*
X0193146Y0356292D02*
X0190940Y0356292D01*
X0193146Y0356292D02*
X0193146Y0352708D01*
X0190940Y0352708D01*
X0190940Y0356292D01*
X0190940Y0353652D02*
X0193146Y0353652D01*
X0193146Y0354596D02*
X0190940Y0354596D01*
X0190940Y0355540D02*
X0193146Y0355540D01*
X0186060Y0356292D02*
X0183854Y0356292D01*
X0186060Y0356292D02*
X0186060Y0352708D01*
X0183854Y0352708D01*
X0183854Y0356292D01*
X0183854Y0353652D02*
X0186060Y0353652D01*
X0186060Y0354596D02*
X0183854Y0354596D01*
X0183854Y0355540D02*
X0186060Y0355540D01*
X0175646Y0360208D02*
X0173440Y0360208D01*
X0173440Y0363792D01*
X0175646Y0363792D01*
X0175646Y0360208D01*
X0175646Y0361152D02*
X0173440Y0361152D01*
X0173440Y0362096D02*
X0175646Y0362096D01*
X0175646Y0363040D02*
X0173440Y0363040D01*
X0168560Y0360208D02*
X0166354Y0360208D01*
X0166354Y0363792D01*
X0168560Y0363792D01*
X0168560Y0360208D01*
X0168560Y0361152D02*
X0166354Y0361152D01*
X0166354Y0362096D02*
X0168560Y0362096D01*
X0168560Y0363040D02*
X0166354Y0363040D01*
X0155646Y0352708D02*
X0153440Y0352708D01*
X0153440Y0356292D01*
X0155646Y0356292D01*
X0155646Y0352708D01*
X0155646Y0353652D02*
X0153440Y0353652D01*
X0153440Y0354596D02*
X0155646Y0354596D01*
X0155646Y0355540D02*
X0153440Y0355540D01*
X0148560Y0352708D02*
X0146354Y0352708D01*
X0146354Y0356292D01*
X0148560Y0356292D01*
X0148560Y0352708D01*
X0148560Y0353652D02*
X0146354Y0353652D01*
X0146354Y0354596D02*
X0148560Y0354596D01*
X0148560Y0355540D02*
X0146354Y0355540D01*
X0123146Y0356292D02*
X0120940Y0356292D01*
X0123146Y0356292D02*
X0123146Y0352708D01*
X0120940Y0352708D01*
X0120940Y0356292D01*
X0120940Y0353652D02*
X0123146Y0353652D01*
X0123146Y0354596D02*
X0120940Y0354596D01*
X0120940Y0355540D02*
X0123146Y0355540D01*
X0116060Y0356292D02*
X0113854Y0356292D01*
X0116060Y0356292D02*
X0116060Y0352708D01*
X0113854Y0352708D01*
X0113854Y0356292D01*
X0113854Y0353652D02*
X0116060Y0353652D01*
X0116060Y0354596D02*
X0113854Y0354596D01*
X0113854Y0355540D02*
X0116060Y0355540D01*
X0105646Y0360208D02*
X0103440Y0360208D01*
X0103440Y0363792D01*
X0105646Y0363792D01*
X0105646Y0360208D01*
X0105646Y0361152D02*
X0103440Y0361152D01*
X0103440Y0362096D02*
X0105646Y0362096D01*
X0105646Y0363040D02*
X0103440Y0363040D01*
X0098560Y0360208D02*
X0096354Y0360208D01*
X0096354Y0363792D01*
X0098560Y0363792D01*
X0098560Y0360208D01*
X0098560Y0361152D02*
X0096354Y0361152D01*
X0096354Y0362096D02*
X0098560Y0362096D01*
X0098560Y0363040D02*
X0096354Y0363040D01*
D16*
X0247000Y0164846D03*
X0247000Y0158154D03*
X0256500Y0158154D03*
X0256500Y0164846D03*
D17*
X0235846Y0436500D03*
X0229154Y0436500D03*
X0229154Y0446000D03*
X0235846Y0446000D03*
D18*
X0050000Y0064000D03*
X0056000Y0064000D03*
X0062000Y0064000D03*
X0073000Y0064000D03*
X0079000Y0064000D03*
X0085000Y0064000D03*
X0247000Y0064000D03*
X0253000Y0064000D03*
X0259000Y0064000D03*
X0270000Y0064000D03*
X0276000Y0064000D03*
X0282000Y0064000D03*
D19*
X0073358Y0479720D03*
X0055642Y0479720D03*
X0055642Y0507280D03*
X0073358Y0507280D03*
D20*
X0300866Y0483500D03*
X0309134Y0483500D03*
D21*
X0323500Y0483800D03*
X0323500Y0477200D03*
X0236000Y0427300D03*
X0236000Y0420700D03*
X0229000Y0420700D03*
X0229000Y0427300D03*
D22*
X0062000Y0416795D03*
X0062000Y0441205D03*
D23*
X0229646Y0400094D03*
X0235354Y0400094D03*
X0240374Y0393500D03*
X0235354Y0386906D03*
X0229646Y0386906D03*
X0229646Y0378094D03*
X0235354Y0378094D03*
X0240374Y0371500D03*
X0235354Y0364906D03*
X0229646Y0364906D03*
D24*
X0227071Y0410039D02*
X0227071Y0411023D01*
X0229237Y0411023D01*
X0229237Y0410039D01*
X0227071Y0410039D01*
X0227071Y0411022D02*
X0229237Y0411022D01*
X0227071Y0413977D02*
X0227071Y0414961D01*
X0229237Y0414961D01*
X0229237Y0413977D01*
X0227071Y0413977D01*
X0227071Y0414960D02*
X0229237Y0414960D01*
X0233763Y0414961D02*
X0233763Y0413977D01*
X0233763Y0414961D02*
X0235929Y0414961D01*
X0235929Y0413977D01*
X0233763Y0413977D01*
X0233763Y0414960D02*
X0235929Y0414960D01*
X0233763Y0411023D02*
X0233763Y0410039D01*
X0233763Y0411023D02*
X0235929Y0411023D01*
X0235929Y0410039D01*
X0233763Y0410039D01*
X0233763Y0411022D02*
X0235929Y0411022D01*
M02*
