G75*
%MOIN*%
%OFA0B0*%
%FSLAX25Y25*%
%IPPOS*%
%LPD*%
%AMOC8*
5,1,8,0,0,1.08239X$1,22.5*
%
%ADD10C,0.00600*%
%ADD11C,0.00400*%
%ADD12C,0.00500*%
%ADD13C,0.01600*%
%ADD14C,0.00630*%
D10*
X0147452Y0208300D02*
X0149654Y0208300D01*
X0150388Y0209034D01*
X0149654Y0209768D01*
X0147452Y0209768D01*
X0147452Y0210502D02*
X0147452Y0208300D01*
X0147452Y0210502D02*
X0148186Y0211236D01*
X0149654Y0211236D01*
X0152056Y0211236D02*
X0154258Y0211236D01*
X0154992Y0210502D01*
X0154992Y0209034D01*
X0154258Y0208300D01*
X0152056Y0208300D01*
X0152056Y0207566D02*
X0152056Y0211236D01*
X0152056Y0207566D02*
X0152790Y0206832D01*
X0153524Y0206832D01*
X0157394Y0208300D02*
X0158862Y0208300D01*
X0159596Y0209034D01*
X0159596Y0210502D01*
X0158862Y0211236D01*
X0157394Y0211236D01*
X0156660Y0210502D01*
X0156660Y0209768D01*
X0159596Y0209768D01*
X0161264Y0208300D02*
X0161264Y0212704D01*
X0162732Y0211236D01*
X0164200Y0212704D01*
X0164200Y0208300D01*
D11*
X0241200Y0207408D02*
X0244269Y0210477D01*
X0245037Y0210477D01*
X0245804Y0209710D01*
X0245804Y0208175D01*
X0245037Y0207408D01*
X0245804Y0205873D02*
X0241200Y0205873D01*
X0241200Y0207408D02*
X0241200Y0210477D01*
X0241200Y0212012D02*
X0245804Y0215081D01*
X0244269Y0217383D02*
X0243502Y0216616D01*
X0241967Y0216616D01*
X0241200Y0217383D01*
X0241200Y0219685D01*
X0244269Y0219685D02*
X0244269Y0217383D01*
X0241200Y0215081D02*
X0245804Y0212012D01*
X0245804Y0205873D02*
X0244269Y0204339D01*
X0245804Y0202804D01*
X0241200Y0202804D01*
X0241967Y0201269D02*
X0245804Y0201269D01*
X0245804Y0198200D02*
X0241967Y0198200D01*
X0241200Y0198967D01*
X0241200Y0200502D01*
X0241967Y0201269D01*
X0241467Y0268700D02*
X0240700Y0269467D01*
X0240700Y0271002D01*
X0241467Y0271769D01*
X0245304Y0271769D01*
X0245304Y0273304D02*
X0243769Y0274839D01*
X0245304Y0276373D01*
X0240700Y0276373D01*
X0240700Y0277908D02*
X0243769Y0280977D01*
X0244537Y0280977D01*
X0245304Y0280210D01*
X0245304Y0278675D01*
X0244537Y0277908D01*
X0240700Y0277908D02*
X0240700Y0280977D01*
X0240700Y0282512D02*
X0245304Y0285581D01*
X0243769Y0287883D02*
X0243769Y0290185D01*
X0245304Y0290185D02*
X0240700Y0290185D01*
X0240700Y0287883D01*
X0241467Y0287116D01*
X0243002Y0287116D01*
X0243769Y0287883D01*
X0240700Y0285581D02*
X0245304Y0282512D01*
X0245304Y0273304D02*
X0240700Y0273304D01*
X0241467Y0268700D02*
X0245304Y0268700D01*
X0245304Y0354700D02*
X0241467Y0354700D01*
X0240700Y0355467D01*
X0240700Y0357002D01*
X0241467Y0357769D01*
X0245304Y0357769D01*
X0245304Y0359304D02*
X0243769Y0360839D01*
X0245304Y0362373D01*
X0240700Y0362373D01*
X0240700Y0363908D02*
X0243769Y0366977D01*
X0244537Y0366977D01*
X0245304Y0366210D01*
X0245304Y0364675D01*
X0244537Y0363908D01*
X0240700Y0363908D02*
X0240700Y0366977D01*
X0240700Y0368512D02*
X0245304Y0371581D01*
X0245304Y0373116D02*
X0240700Y0373116D01*
X0240700Y0375418D01*
X0241467Y0376185D01*
X0243002Y0376185D01*
X0243769Y0375418D01*
X0243769Y0373116D01*
X0240700Y0371581D02*
X0245304Y0368512D01*
X0245304Y0359304D02*
X0240700Y0359304D01*
X0055304Y0364200D02*
X0051467Y0364200D01*
X0050700Y0364967D01*
X0050700Y0366502D01*
X0051467Y0367269D01*
X0055304Y0367269D01*
X0055304Y0368804D02*
X0053769Y0370339D01*
X0055304Y0371873D01*
X0050700Y0371873D01*
X0050700Y0373408D02*
X0053769Y0376477D01*
X0054537Y0376477D01*
X0055304Y0375710D01*
X0055304Y0374175D01*
X0054537Y0373408D01*
X0050700Y0373408D02*
X0050700Y0376477D01*
X0050700Y0378012D02*
X0053769Y0381081D01*
X0053769Y0383383D02*
X0053769Y0384918D01*
X0053002Y0385685D01*
X0050700Y0385685D01*
X0050700Y0383383D01*
X0051467Y0382616D01*
X0052235Y0383383D01*
X0052235Y0385685D01*
X0050700Y0381081D02*
X0053769Y0378012D01*
X0055304Y0368804D02*
X0050700Y0368804D01*
X0044200Y0298977D02*
X0044200Y0295908D01*
X0044200Y0297442D02*
X0048804Y0297442D01*
X0047269Y0295908D01*
X0046502Y0294373D02*
X0045735Y0293606D01*
X0045735Y0291304D01*
X0044200Y0291304D02*
X0048804Y0291304D01*
X0048804Y0293606D01*
X0048037Y0294373D01*
X0046502Y0294373D01*
X0048804Y0289769D02*
X0048804Y0288235D01*
X0048804Y0289002D02*
X0044967Y0289002D01*
X0044200Y0288235D01*
X0044200Y0287467D01*
X0044967Y0286700D01*
X0050700Y0196477D02*
X0050700Y0193408D01*
X0053769Y0196477D01*
X0054537Y0196477D01*
X0055304Y0195710D01*
X0055304Y0194175D01*
X0054537Y0193408D01*
X0054537Y0191873D02*
X0053002Y0191873D01*
X0052235Y0191106D01*
X0052235Y0188804D01*
X0050700Y0188804D02*
X0055304Y0188804D01*
X0055304Y0191106D01*
X0054537Y0191873D01*
X0055304Y0187269D02*
X0055304Y0185735D01*
X0055304Y0186502D02*
X0051467Y0186502D01*
X0050700Y0185735D01*
X0050700Y0184967D01*
X0051467Y0184200D01*
D12*
X0085451Y0185002D02*
X0087453Y0183000D01*
X0085451Y0183000D01*
X0085451Y0185002D02*
X0085451Y0185502D01*
X0085952Y0186003D01*
X0086953Y0186003D01*
X0087453Y0185502D01*
X0089675Y0186003D02*
X0089675Y0183000D01*
X0090676Y0183000D02*
X0088674Y0183000D01*
X0090676Y0185002D02*
X0089675Y0186003D01*
X0091897Y0186003D02*
X0091897Y0183000D01*
X0093899Y0186003D01*
X0093899Y0183000D01*
X0095046Y0183000D02*
X0096047Y0183000D01*
X0095547Y0183000D02*
X0095547Y0186003D01*
X0096047Y0186003D02*
X0095046Y0186003D01*
X0097268Y0185002D02*
X0097268Y0183000D01*
X0097268Y0184501D02*
X0099270Y0184501D01*
X0099270Y0185002D02*
X0099270Y0183000D01*
X0099270Y0185002D02*
X0098269Y0186003D01*
X0097268Y0185002D01*
X0097268Y0193000D02*
X0097268Y0195002D01*
X0098269Y0196003D01*
X0099270Y0195002D01*
X0099270Y0193000D01*
X0099270Y0194501D02*
X0097268Y0194501D01*
X0096047Y0193000D02*
X0095046Y0193000D01*
X0095547Y0193000D02*
X0095547Y0196003D01*
X0096047Y0196003D02*
X0095046Y0196003D01*
X0093899Y0196003D02*
X0091897Y0193000D01*
X0091897Y0196003D01*
X0090676Y0195002D02*
X0089675Y0196003D01*
X0089675Y0193000D01*
X0090676Y0193000D02*
X0088674Y0193000D01*
X0087453Y0193000D02*
X0085451Y0193000D01*
X0086452Y0193000D02*
X0086452Y0196003D01*
X0087453Y0195002D01*
X0093899Y0196003D02*
X0093899Y0193000D01*
X0093899Y0203000D02*
X0093899Y0206003D01*
X0091897Y0203000D01*
X0091897Y0206003D01*
X0090676Y0205002D02*
X0089675Y0206003D01*
X0089675Y0203000D01*
X0090676Y0203000D02*
X0088674Y0203000D01*
X0087453Y0203500D02*
X0086953Y0203000D01*
X0085952Y0203000D01*
X0085451Y0203500D01*
X0085451Y0205502D01*
X0087453Y0203500D01*
X0087453Y0205502D01*
X0086953Y0206003D01*
X0085952Y0206003D01*
X0085451Y0205502D01*
X0086063Y0213000D02*
X0085563Y0213500D01*
X0085563Y0215502D01*
X0086063Y0216003D01*
X0087064Y0216003D01*
X0087564Y0215502D01*
X0087564Y0215002D01*
X0087064Y0214501D01*
X0085563Y0214501D01*
X0086063Y0213000D02*
X0087064Y0213000D01*
X0087564Y0213500D01*
X0088785Y0213000D02*
X0088785Y0216003D01*
X0090787Y0216003D02*
X0088785Y0213000D01*
X0090787Y0213000D02*
X0090787Y0216003D01*
X0091935Y0216003D02*
X0092936Y0216003D01*
X0092435Y0216003D02*
X0092435Y0213000D01*
X0091935Y0213000D02*
X0092936Y0213000D01*
X0094157Y0213000D02*
X0094157Y0215002D01*
X0095158Y0216003D01*
X0096158Y0215002D01*
X0096158Y0213000D01*
X0096158Y0214501D02*
X0094157Y0214501D01*
X0095046Y0206003D02*
X0096047Y0206003D01*
X0095547Y0206003D02*
X0095547Y0203000D01*
X0096047Y0203000D02*
X0095046Y0203000D01*
X0097268Y0203000D02*
X0097268Y0205002D01*
X0098269Y0206003D01*
X0099270Y0205002D01*
X0099270Y0203000D01*
X0099270Y0204501D02*
X0097268Y0204501D01*
X0096158Y0223000D02*
X0096158Y0225002D01*
X0095158Y0226003D01*
X0094157Y0225002D01*
X0094157Y0223000D01*
X0092936Y0223000D02*
X0091935Y0223000D01*
X0092435Y0223000D02*
X0092435Y0226003D01*
X0091935Y0226003D02*
X0092936Y0226003D01*
X0094157Y0224501D02*
X0096158Y0224501D01*
X0090787Y0223000D02*
X0090787Y0226003D01*
X0088785Y0223000D01*
X0088785Y0226003D01*
X0087564Y0225502D02*
X0087564Y0225002D01*
X0087064Y0224501D01*
X0086063Y0224501D01*
X0085563Y0224001D01*
X0085563Y0223500D01*
X0086063Y0223000D01*
X0087064Y0223000D01*
X0087564Y0223500D01*
X0087564Y0224001D01*
X0087064Y0224501D01*
X0086063Y0224501D02*
X0085563Y0225002D01*
X0085563Y0225502D01*
X0086063Y0226003D01*
X0087064Y0226003D01*
X0087564Y0225502D01*
X0076158Y0243000D02*
X0076158Y0245002D01*
X0075158Y0246003D01*
X0074157Y0245002D01*
X0074157Y0243000D01*
X0072936Y0243000D02*
X0071935Y0243000D01*
X0072435Y0243000D02*
X0072435Y0246003D01*
X0071935Y0246003D02*
X0072936Y0246003D01*
X0074157Y0244501D02*
X0076158Y0244501D01*
X0070787Y0243000D02*
X0070787Y0246003D01*
X0068785Y0243000D01*
X0068785Y0246003D01*
X0067564Y0246003D02*
X0065563Y0246003D01*
X0065563Y0245502D01*
X0067564Y0243500D01*
X0067564Y0243000D01*
X0067064Y0253000D02*
X0066063Y0253000D01*
X0065563Y0253500D01*
X0065563Y0254001D01*
X0066063Y0254501D01*
X0067564Y0254501D01*
X0067564Y0253500D01*
X0067064Y0253000D01*
X0067564Y0254501D02*
X0066564Y0255502D01*
X0065563Y0256003D01*
X0068785Y0256003D02*
X0068785Y0253000D01*
X0070787Y0256003D01*
X0070787Y0253000D01*
X0071935Y0253000D02*
X0072936Y0253000D01*
X0072435Y0253000D02*
X0072435Y0256003D01*
X0071935Y0256003D02*
X0072936Y0256003D01*
X0074157Y0255002D02*
X0074157Y0253000D01*
X0074157Y0254501D02*
X0076158Y0254501D01*
X0076158Y0255002D02*
X0075158Y0256003D01*
X0074157Y0255002D01*
X0076158Y0255002D02*
X0076158Y0253000D01*
X0076158Y0263000D02*
X0076158Y0265002D01*
X0075158Y0266003D01*
X0074157Y0265002D01*
X0074157Y0263000D01*
X0072936Y0263000D02*
X0071935Y0263000D01*
X0072435Y0263000D02*
X0072435Y0266003D01*
X0071935Y0266003D02*
X0072936Y0266003D01*
X0074157Y0264501D02*
X0076158Y0264501D01*
X0070787Y0263000D02*
X0070787Y0266003D01*
X0068785Y0263000D01*
X0068785Y0266003D01*
X0067564Y0266003D02*
X0067564Y0264501D01*
X0066564Y0265002D01*
X0066063Y0265002D01*
X0065563Y0264501D01*
X0065563Y0263500D01*
X0066063Y0263000D01*
X0067064Y0263000D01*
X0067564Y0263500D01*
X0067564Y0266003D02*
X0065563Y0266003D01*
X0066063Y0273000D02*
X0066063Y0276003D01*
X0067564Y0274501D01*
X0065563Y0274501D01*
X0068785Y0273000D02*
X0068785Y0276003D01*
X0070787Y0276003D02*
X0068785Y0273000D01*
X0070787Y0273000D02*
X0070787Y0276003D01*
X0071935Y0276003D02*
X0072936Y0276003D01*
X0072435Y0276003D02*
X0072435Y0273000D01*
X0071935Y0273000D02*
X0072936Y0273000D01*
X0074157Y0273000D02*
X0074157Y0275002D01*
X0075158Y0276003D01*
X0076158Y0275002D01*
X0076158Y0273000D01*
X0076158Y0274501D02*
X0074157Y0274501D01*
X0074157Y0283000D02*
X0074157Y0285002D01*
X0075158Y0286003D01*
X0076158Y0285002D01*
X0076158Y0283000D01*
X0076158Y0284501D02*
X0074157Y0284501D01*
X0072936Y0283000D02*
X0071935Y0283000D01*
X0072435Y0283000D02*
X0072435Y0286003D01*
X0071935Y0286003D02*
X0072936Y0286003D01*
X0070787Y0286003D02*
X0068785Y0283000D01*
X0068785Y0286003D01*
X0067564Y0285502D02*
X0067064Y0286003D01*
X0066063Y0286003D01*
X0065563Y0285502D01*
X0065563Y0285002D01*
X0066063Y0284501D01*
X0065563Y0284001D01*
X0065563Y0283500D01*
X0066063Y0283000D01*
X0067064Y0283000D01*
X0067564Y0283500D01*
X0066564Y0284501D02*
X0066063Y0284501D01*
X0070787Y0283000D02*
X0070787Y0286003D01*
X0070787Y0293000D02*
X0070787Y0296003D01*
X0068785Y0293000D01*
X0068785Y0296003D01*
X0067564Y0295502D02*
X0067064Y0296003D01*
X0066063Y0296003D01*
X0065563Y0295502D01*
X0065563Y0295002D01*
X0067564Y0293000D01*
X0065563Y0293000D01*
X0071935Y0293000D02*
X0072936Y0293000D01*
X0072435Y0293000D02*
X0072435Y0296003D01*
X0071935Y0296003D02*
X0072936Y0296003D01*
X0074157Y0295002D02*
X0074157Y0293000D01*
X0074157Y0294501D02*
X0076158Y0294501D01*
X0076158Y0295002D02*
X0075158Y0296003D01*
X0074157Y0295002D01*
X0076158Y0295002D02*
X0076158Y0293000D01*
X0076158Y0303000D02*
X0076158Y0305002D01*
X0075158Y0306003D01*
X0074157Y0305002D01*
X0074157Y0303000D01*
X0072936Y0303000D02*
X0071935Y0303000D01*
X0072435Y0303000D02*
X0072435Y0306003D01*
X0071935Y0306003D02*
X0072936Y0306003D01*
X0074157Y0304501D02*
X0076158Y0304501D01*
X0070787Y0303000D02*
X0070787Y0306003D01*
X0068785Y0303000D01*
X0068785Y0306003D01*
X0067564Y0305002D02*
X0066564Y0306003D01*
X0066564Y0303000D01*
X0067564Y0303000D02*
X0065563Y0303000D01*
X0066063Y0313000D02*
X0067064Y0313000D01*
X0067564Y0313500D01*
X0065563Y0315502D01*
X0065563Y0313500D01*
X0066063Y0313000D01*
X0067564Y0313500D02*
X0067564Y0315502D01*
X0067064Y0316003D01*
X0066063Y0316003D01*
X0065563Y0315502D01*
X0068785Y0316003D02*
X0068785Y0313000D01*
X0070787Y0316003D01*
X0070787Y0313000D01*
X0071935Y0313000D02*
X0072936Y0313000D01*
X0072435Y0313000D02*
X0072435Y0316003D01*
X0071935Y0316003D02*
X0072936Y0316003D01*
X0074157Y0315002D02*
X0074157Y0313000D01*
X0074157Y0314501D02*
X0076158Y0314501D01*
X0076158Y0315002D02*
X0075158Y0316003D01*
X0074157Y0315002D01*
X0076158Y0315002D02*
X0076158Y0313000D01*
X0074846Y0333000D02*
X0073845Y0334001D01*
X0073845Y0336003D01*
X0072624Y0336003D02*
X0071623Y0336003D01*
X0072124Y0336003D02*
X0072124Y0333000D01*
X0072624Y0333000D02*
X0071623Y0333000D01*
X0070476Y0333000D02*
X0070476Y0336003D01*
X0068474Y0333000D01*
X0068474Y0336003D01*
X0068437Y0343000D02*
X0067937Y0343500D01*
X0067937Y0345502D01*
X0068437Y0346003D01*
X0069939Y0346003D01*
X0069939Y0343000D01*
X0068437Y0343000D01*
X0071160Y0343000D02*
X0071160Y0346003D01*
X0073161Y0346003D02*
X0071160Y0343000D01*
X0073161Y0343000D02*
X0073161Y0346003D01*
X0074382Y0345502D02*
X0074883Y0346003D01*
X0075884Y0346003D01*
X0076384Y0345502D01*
X0076384Y0343500D01*
X0075884Y0343000D01*
X0074883Y0343000D01*
X0074382Y0343500D01*
X0074382Y0344501D01*
X0075383Y0344501D01*
X0075847Y0336003D02*
X0075847Y0334001D01*
X0074846Y0333000D01*
X0074883Y0353000D02*
X0074382Y0353500D01*
X0074382Y0354501D01*
X0075383Y0354501D01*
X0076384Y0353500D02*
X0075884Y0353000D01*
X0074883Y0353000D01*
X0076384Y0353500D02*
X0076384Y0355502D01*
X0075884Y0356003D01*
X0074883Y0356003D01*
X0074382Y0355502D01*
X0073161Y0356003D02*
X0071160Y0353000D01*
X0071160Y0356003D01*
X0069939Y0356003D02*
X0068437Y0356003D01*
X0067937Y0355502D01*
X0067937Y0353500D01*
X0068437Y0353000D01*
X0069939Y0353000D01*
X0069939Y0356003D01*
X0073161Y0356003D02*
X0073161Y0353000D01*
X0085748Y0364001D02*
X0086749Y0363000D01*
X0087750Y0364001D01*
X0087750Y0366003D01*
X0088971Y0366003D02*
X0090973Y0366003D01*
X0090973Y0364501D01*
X0089972Y0365002D01*
X0089471Y0365002D01*
X0088971Y0364501D01*
X0088971Y0363500D01*
X0089471Y0363000D01*
X0090472Y0363000D01*
X0090973Y0363500D01*
X0085748Y0364001D02*
X0085748Y0366003D01*
X0086137Y0373000D02*
X0087138Y0373000D01*
X0087639Y0373500D01*
X0088860Y0374001D02*
X0088860Y0376003D01*
X0087639Y0375502D02*
X0087138Y0376003D01*
X0086137Y0376003D01*
X0085637Y0375502D01*
X0085637Y0375002D01*
X0086137Y0374501D01*
X0085637Y0374001D01*
X0085637Y0373500D01*
X0086137Y0373000D01*
X0086137Y0374501D02*
X0086638Y0374501D01*
X0088860Y0374001D02*
X0089861Y0373000D01*
X0090861Y0374001D01*
X0090861Y0376003D01*
X0092082Y0375502D02*
X0092082Y0375002D01*
X0092583Y0374501D01*
X0092082Y0374001D01*
X0092082Y0373500D01*
X0092583Y0373000D01*
X0093584Y0373000D01*
X0094084Y0373500D01*
X0093083Y0374501D02*
X0092583Y0374501D01*
X0092082Y0375502D02*
X0092583Y0376003D01*
X0093584Y0376003D01*
X0094084Y0375502D01*
X0093361Y0383000D02*
X0093861Y0383500D01*
X0093361Y0383000D02*
X0092360Y0383000D01*
X0091860Y0383500D01*
X0091860Y0384001D01*
X0092360Y0384501D01*
X0093361Y0384501D01*
X0093861Y0385002D01*
X0093861Y0385502D01*
X0093361Y0386003D01*
X0092360Y0386003D01*
X0091860Y0385502D01*
X0090639Y0386003D02*
X0090639Y0383000D01*
X0088637Y0383000D01*
X0089638Y0384501D02*
X0090639Y0384501D01*
X0090639Y0386003D02*
X0088637Y0386003D01*
X0087416Y0386003D02*
X0085414Y0386003D01*
X0086415Y0386003D02*
X0086415Y0383000D01*
X0095082Y0383000D02*
X0097084Y0383000D01*
X0097084Y0386003D01*
X0095082Y0386003D01*
X0096083Y0384501D02*
X0097084Y0384501D01*
X0098305Y0384501D02*
X0098806Y0384001D01*
X0100307Y0384001D01*
X0099306Y0384001D02*
X0098305Y0383000D01*
X0098305Y0384501D02*
X0098305Y0385502D01*
X0098806Y0386003D01*
X0100307Y0386003D01*
X0100307Y0383000D01*
X0099270Y0393000D02*
X0098269Y0393000D01*
X0098769Y0393000D02*
X0098769Y0396003D01*
X0098269Y0396003D02*
X0099270Y0396003D01*
X0097121Y0395502D02*
X0097121Y0393500D01*
X0096621Y0393000D01*
X0095620Y0393000D01*
X0095120Y0393500D01*
X0095120Y0395502D01*
X0095620Y0396003D01*
X0096621Y0396003D01*
X0097121Y0395502D01*
X0093899Y0396003D02*
X0093899Y0393000D01*
X0093899Y0394001D02*
X0092397Y0394001D01*
X0091897Y0394501D01*
X0091897Y0395502D01*
X0092397Y0396003D01*
X0093899Y0396003D01*
X0092898Y0394001D02*
X0091897Y0393000D01*
X0090676Y0393000D02*
X0088674Y0393000D01*
X0087453Y0393000D02*
X0087453Y0396003D01*
X0085451Y0396003D01*
X0086452Y0394501D02*
X0087453Y0394501D01*
X0088674Y0396003D02*
X0090676Y0396003D01*
X0090676Y0393000D01*
X0090676Y0394501D02*
X0089675Y0394501D01*
X0088971Y0403000D02*
X0088971Y0406003D01*
X0087750Y0405502D02*
X0087750Y0403500D01*
X0087250Y0403000D01*
X0086249Y0403000D01*
X0085748Y0403500D01*
X0085748Y0405502D02*
X0086249Y0406003D01*
X0087250Y0406003D01*
X0087750Y0405502D01*
X0088971Y0403000D02*
X0090973Y0406003D01*
X0090973Y0403000D01*
X0254726Y0422003D02*
X0256727Y0422003D01*
X0256727Y0419000D01*
X0257948Y0419000D02*
X0259950Y0419000D01*
X0259950Y0422003D01*
X0257948Y0422003D01*
X0258949Y0420501D02*
X0259950Y0420501D01*
X0261171Y0420501D02*
X0261671Y0420001D01*
X0263173Y0420001D01*
X0263173Y0419000D02*
X0263173Y0422003D01*
X0261671Y0422003D01*
X0261171Y0421502D01*
X0261171Y0420501D01*
X0262172Y0420001D02*
X0261171Y0419000D01*
X0264394Y0419000D02*
X0264394Y0421002D01*
X0265395Y0422003D01*
X0266395Y0421002D01*
X0266395Y0419000D01*
X0266395Y0420501D02*
X0264394Y0420501D01*
X0256727Y0420501D02*
X0255726Y0420501D01*
X0258137Y0429000D02*
X0258137Y0431002D01*
X0259138Y0432003D01*
X0260139Y0431002D01*
X0260139Y0429000D01*
X0261360Y0429500D02*
X0261360Y0431502D01*
X0261860Y0432003D01*
X0263361Y0432003D01*
X0263361Y0429000D01*
X0261860Y0429000D01*
X0261360Y0429500D01*
X0260139Y0430501D02*
X0258137Y0430501D01*
X0264582Y0430001D02*
X0264582Y0429500D01*
X0265083Y0429000D01*
X0266084Y0429000D01*
X0266584Y0429500D01*
X0266084Y0430501D02*
X0265083Y0430501D01*
X0264582Y0430001D01*
X0264582Y0431502D02*
X0265083Y0432003D01*
X0266084Y0432003D01*
X0266584Y0431502D01*
X0266584Y0431002D01*
X0266084Y0430501D01*
X0266084Y0439000D02*
X0265083Y0439000D01*
X0264582Y0439500D01*
X0264582Y0440001D01*
X0265083Y0440501D01*
X0266084Y0440501D01*
X0266584Y0441002D01*
X0266584Y0441502D01*
X0266084Y0442003D01*
X0265083Y0442003D01*
X0264582Y0441502D01*
X0263361Y0441502D02*
X0263361Y0439500D01*
X0262861Y0439000D01*
X0261860Y0439000D01*
X0261360Y0439500D01*
X0260139Y0439000D02*
X0258137Y0439000D01*
X0260139Y0439000D02*
X0260139Y0442003D01*
X0261360Y0441502D02*
X0261860Y0442003D01*
X0262861Y0442003D01*
X0263361Y0441502D01*
X0266084Y0439000D02*
X0266584Y0439500D01*
X0266084Y0412003D02*
X0265083Y0412003D01*
X0264582Y0411502D01*
X0264582Y0410501D02*
X0265583Y0410501D01*
X0264582Y0410501D02*
X0264582Y0409500D01*
X0265083Y0409000D01*
X0266084Y0409000D01*
X0266584Y0409500D01*
X0266584Y0411502D01*
X0266084Y0412003D01*
X0263361Y0412003D02*
X0261360Y0409000D01*
X0261360Y0412003D01*
X0260139Y0412003D02*
X0258637Y0412003D01*
X0258137Y0411502D01*
X0258137Y0409500D01*
X0258637Y0409000D01*
X0260139Y0409000D01*
X0260139Y0412003D01*
X0263361Y0412003D02*
X0263361Y0409000D01*
X0275748Y0401502D02*
X0275748Y0401002D01*
X0276249Y0400501D01*
X0275748Y0400001D01*
X0275748Y0399500D01*
X0276249Y0399000D01*
X0277250Y0399000D01*
X0277750Y0399500D01*
X0278971Y0399000D02*
X0280973Y0399000D01*
X0279972Y0399000D02*
X0279972Y0402003D01*
X0280973Y0401002D01*
X0277750Y0401502D02*
X0277250Y0402003D01*
X0276249Y0402003D01*
X0275748Y0401502D01*
X0276249Y0400501D02*
X0276749Y0400501D01*
X0276249Y0392003D02*
X0277250Y0392003D01*
X0277750Y0391502D01*
X0276249Y0392003D02*
X0275748Y0391502D01*
X0275748Y0391002D01*
X0277750Y0389000D01*
X0275748Y0389000D01*
X0278971Y0389000D02*
X0280973Y0389000D01*
X0279972Y0389000D02*
X0279972Y0392003D01*
X0280973Y0391002D01*
X0279972Y0382003D02*
X0279972Y0379000D01*
X0280973Y0379000D02*
X0278971Y0379000D01*
X0277750Y0379000D02*
X0275748Y0379000D01*
X0276749Y0379000D02*
X0276749Y0382003D01*
X0277750Y0381002D01*
X0279972Y0382003D02*
X0280973Y0381002D01*
X0279972Y0372003D02*
X0279972Y0369000D01*
X0280973Y0369000D02*
X0278971Y0369000D01*
X0277750Y0369500D02*
X0277250Y0369000D01*
X0276249Y0369000D01*
X0275748Y0369500D01*
X0275748Y0371502D01*
X0277750Y0369500D01*
X0277750Y0371502D01*
X0277250Y0372003D01*
X0276249Y0372003D01*
X0275748Y0371502D01*
X0279972Y0372003D02*
X0280973Y0371002D01*
X0277361Y0362003D02*
X0276360Y0362003D01*
X0275860Y0361502D01*
X0275860Y0359500D01*
X0276360Y0359000D01*
X0277361Y0359000D01*
X0277861Y0359500D01*
X0277361Y0360501D02*
X0275860Y0360501D01*
X0277361Y0360501D02*
X0277861Y0361002D01*
X0277861Y0361502D01*
X0277361Y0362003D01*
X0277361Y0352003D02*
X0276360Y0352003D01*
X0275860Y0351502D01*
X0275860Y0351002D01*
X0276360Y0350501D01*
X0277361Y0350501D01*
X0277861Y0351002D01*
X0277861Y0351502D01*
X0277361Y0352003D01*
X0277361Y0350501D02*
X0277861Y0350001D01*
X0277861Y0349500D01*
X0277361Y0349000D01*
X0276360Y0349000D01*
X0275860Y0349500D01*
X0275860Y0350001D01*
X0276360Y0350501D01*
X0275860Y0336003D02*
X0275860Y0335502D01*
X0277861Y0333500D01*
X0277861Y0333000D01*
X0277861Y0336003D02*
X0275860Y0336003D01*
X0275860Y0326003D02*
X0276861Y0325502D01*
X0277861Y0324501D01*
X0276360Y0324501D01*
X0275860Y0324001D01*
X0275860Y0323500D01*
X0276360Y0323000D01*
X0277361Y0323000D01*
X0277861Y0323500D01*
X0277861Y0324501D01*
X0277861Y0316003D02*
X0275860Y0316003D01*
X0276360Y0315002D02*
X0275860Y0314501D01*
X0275860Y0313500D01*
X0276360Y0313000D01*
X0277361Y0313000D01*
X0277861Y0313500D01*
X0277861Y0314501D02*
X0276861Y0315002D01*
X0276360Y0315002D01*
X0277861Y0314501D02*
X0277861Y0316003D01*
X0276360Y0306003D02*
X0277861Y0304501D01*
X0275860Y0304501D01*
X0276360Y0303000D02*
X0276360Y0306003D01*
X0276360Y0296003D02*
X0275860Y0295502D01*
X0275860Y0295002D01*
X0276360Y0294501D01*
X0275860Y0294001D01*
X0275860Y0293500D01*
X0276360Y0293000D01*
X0277361Y0293000D01*
X0277861Y0293500D01*
X0276861Y0294501D02*
X0276360Y0294501D01*
X0276360Y0296003D02*
X0277361Y0296003D01*
X0277861Y0295502D01*
X0277361Y0286003D02*
X0276360Y0286003D01*
X0275860Y0285502D01*
X0275860Y0285002D01*
X0277861Y0283000D01*
X0275860Y0283000D01*
X0277861Y0285502D02*
X0277361Y0286003D01*
X0276861Y0276003D02*
X0276861Y0273000D01*
X0277861Y0273000D02*
X0275860Y0273000D01*
X0277861Y0275002D02*
X0276861Y0276003D01*
X0277361Y0266003D02*
X0276360Y0266003D01*
X0275860Y0265502D01*
X0277861Y0263500D01*
X0277361Y0263000D01*
X0276360Y0263000D01*
X0275860Y0263500D01*
X0275860Y0265502D01*
X0277361Y0266003D02*
X0277861Y0265502D01*
X0277861Y0263500D01*
X0262473Y0260503D02*
X0262473Y0257500D01*
X0262473Y0258501D02*
X0260971Y0258501D01*
X0260471Y0259001D01*
X0260471Y0260002D01*
X0260971Y0260503D01*
X0262473Y0260503D01*
X0261472Y0258501D02*
X0260471Y0257500D01*
X0259250Y0257500D02*
X0257248Y0260503D01*
X0259250Y0260503D02*
X0257248Y0257500D01*
X0258137Y0246003D02*
X0257637Y0245502D01*
X0257637Y0245002D01*
X0258137Y0244501D01*
X0257637Y0244001D01*
X0257637Y0243500D01*
X0258137Y0243000D01*
X0259138Y0243000D01*
X0259639Y0243500D01*
X0260860Y0243000D02*
X0262861Y0246003D01*
X0264082Y0246003D02*
X0266084Y0246003D01*
X0265083Y0246003D02*
X0265083Y0243000D01*
X0262861Y0243000D02*
X0260860Y0246003D01*
X0259639Y0245502D02*
X0259138Y0246003D01*
X0258137Y0246003D01*
X0258137Y0244501D02*
X0258638Y0244501D01*
X0259138Y0236003D02*
X0258137Y0236003D01*
X0257637Y0235502D01*
X0257637Y0235002D01*
X0258137Y0234501D01*
X0257637Y0234001D01*
X0257637Y0233500D01*
X0258137Y0233000D01*
X0259138Y0233000D01*
X0259639Y0233500D01*
X0260860Y0233000D02*
X0262861Y0236003D01*
X0264082Y0235502D02*
X0264082Y0234501D01*
X0264583Y0234001D01*
X0266084Y0234001D01*
X0265083Y0234001D02*
X0264082Y0233000D01*
X0262861Y0233000D02*
X0260860Y0236003D01*
X0259639Y0235502D02*
X0259138Y0236003D01*
X0258638Y0234501D02*
X0258137Y0234501D01*
X0264082Y0235502D02*
X0264583Y0236003D01*
X0266084Y0236003D01*
X0266084Y0233000D01*
X0266084Y0226003D02*
X0264082Y0226003D01*
X0265083Y0226003D02*
X0265083Y0223000D01*
X0262861Y0223000D02*
X0260860Y0226003D01*
X0259639Y0225502D02*
X0259138Y0226003D01*
X0258137Y0226003D01*
X0257637Y0225502D01*
X0257637Y0225002D01*
X0259639Y0223000D01*
X0257637Y0223000D01*
X0260860Y0223000D02*
X0262861Y0226003D01*
X0262861Y0216003D02*
X0260860Y0213000D01*
X0259639Y0213000D02*
X0257637Y0215002D01*
X0257637Y0215502D01*
X0258137Y0216003D01*
X0259138Y0216003D01*
X0259639Y0215502D01*
X0260860Y0216003D02*
X0262861Y0213000D01*
X0264082Y0213000D02*
X0265083Y0214001D01*
X0264583Y0214001D02*
X0266084Y0214001D01*
X0266084Y0213000D02*
X0266084Y0216003D01*
X0264583Y0216003D01*
X0264082Y0215502D01*
X0264082Y0214501D01*
X0264583Y0214001D01*
X0259639Y0213000D02*
X0257637Y0213000D01*
X0258638Y0206003D02*
X0258638Y0203000D01*
X0259639Y0203000D02*
X0257637Y0203000D01*
X0259639Y0205002D02*
X0258638Y0206003D01*
X0260860Y0206003D02*
X0262861Y0203000D01*
X0260860Y0203000D02*
X0262861Y0206003D01*
X0264082Y0206003D02*
X0266084Y0206003D01*
X0265083Y0206003D02*
X0265083Y0203000D01*
X0264583Y0196003D02*
X0264082Y0195502D01*
X0264082Y0194501D01*
X0264583Y0194001D01*
X0266084Y0194001D01*
X0265083Y0194001D02*
X0264082Y0193000D01*
X0262861Y0193000D02*
X0260860Y0196003D01*
X0259639Y0195002D02*
X0258638Y0196003D01*
X0258638Y0193000D01*
X0259639Y0193000D02*
X0257637Y0193000D01*
X0260860Y0193000D02*
X0262861Y0196003D01*
X0264583Y0196003D02*
X0266084Y0196003D01*
X0266084Y0193000D01*
X0265584Y0186003D02*
X0264583Y0186003D01*
X0264082Y0185502D01*
X0264583Y0184501D02*
X0264082Y0184001D01*
X0264082Y0183500D01*
X0264583Y0183000D01*
X0265584Y0183000D01*
X0266084Y0183500D01*
X0265584Y0184501D02*
X0264583Y0184501D01*
X0265584Y0184501D02*
X0266084Y0185002D01*
X0266084Y0185502D01*
X0265584Y0186003D01*
X0262861Y0186003D02*
X0262861Y0183000D01*
X0261360Y0183000D01*
X0260860Y0183500D01*
X0260860Y0185502D01*
X0261360Y0186003D01*
X0262861Y0186003D01*
X0259639Y0185002D02*
X0258638Y0186003D01*
X0257637Y0185002D01*
X0257637Y0183000D01*
X0257637Y0184501D02*
X0259639Y0184501D01*
X0259639Y0185002D02*
X0259639Y0183000D01*
X0259639Y0176003D02*
X0259639Y0173000D01*
X0257637Y0173000D01*
X0260860Y0173500D02*
X0261360Y0173000D01*
X0262361Y0173000D01*
X0262861Y0173500D01*
X0262861Y0175502D01*
X0262361Y0176003D01*
X0261360Y0176003D01*
X0260860Y0175502D01*
X0264082Y0175502D02*
X0264583Y0176003D01*
X0265584Y0176003D01*
X0266084Y0175502D01*
X0266084Y0175002D01*
X0265584Y0174501D01*
X0264583Y0174501D01*
X0264082Y0174001D01*
X0264082Y0173500D01*
X0264583Y0173000D01*
X0265584Y0173000D01*
X0266084Y0173500D01*
X0275248Y0173000D02*
X0277250Y0173000D01*
X0276249Y0173000D02*
X0276249Y0176003D01*
X0277250Y0175002D01*
X0278471Y0175002D02*
X0278471Y0175502D01*
X0278971Y0176003D01*
X0279972Y0176003D01*
X0280473Y0175502D01*
X0278471Y0175002D02*
X0280473Y0173000D01*
X0278471Y0173000D01*
X0278471Y0183000D02*
X0280473Y0183000D01*
X0278471Y0185002D01*
X0278471Y0185502D01*
X0278971Y0186003D01*
X0279972Y0186003D01*
X0280473Y0185502D01*
X0277250Y0185502D02*
X0276750Y0186003D01*
X0275749Y0186003D01*
X0275248Y0185502D01*
X0277250Y0183500D01*
X0276750Y0183000D01*
X0275749Y0183000D01*
X0275248Y0183500D01*
X0275248Y0185502D01*
X0277250Y0185502D02*
X0277250Y0183500D01*
X0276750Y0193000D02*
X0275749Y0193000D01*
X0275248Y0193500D01*
X0275248Y0195502D01*
X0275749Y0196003D01*
X0276750Y0196003D01*
X0277250Y0195502D01*
X0277250Y0195002D01*
X0276750Y0194501D01*
X0275248Y0194501D01*
X0276750Y0193000D02*
X0277250Y0193500D01*
X0278471Y0193000D02*
X0280473Y0193000D01*
X0279472Y0193000D02*
X0279472Y0196003D01*
X0280473Y0195002D01*
X0280473Y0203000D02*
X0278471Y0203000D01*
X0279472Y0203000D02*
X0279472Y0206003D01*
X0280473Y0205002D01*
X0277250Y0205002D02*
X0277250Y0205502D01*
X0276750Y0206003D01*
X0275749Y0206003D01*
X0275248Y0205502D01*
X0275248Y0205002D01*
X0275749Y0204501D01*
X0276750Y0204501D01*
X0277250Y0205002D01*
X0276750Y0204501D02*
X0277250Y0204001D01*
X0277250Y0203500D01*
X0276750Y0203000D01*
X0275749Y0203000D01*
X0275248Y0203500D01*
X0275248Y0204001D01*
X0275749Y0204501D01*
X0277250Y0213000D02*
X0277250Y0213500D01*
X0275248Y0215502D01*
X0275248Y0216003D01*
X0277250Y0216003D01*
X0279472Y0216003D02*
X0279472Y0213000D01*
X0280473Y0213000D02*
X0278471Y0213000D01*
X0280473Y0215002D02*
X0279472Y0216003D01*
X0279472Y0223000D02*
X0279472Y0226003D01*
X0280473Y0225002D01*
X0280473Y0223000D02*
X0278471Y0223000D01*
X0277250Y0223500D02*
X0276750Y0223000D01*
X0275749Y0223000D01*
X0275248Y0223500D01*
X0275248Y0224001D01*
X0275749Y0224501D01*
X0277250Y0224501D01*
X0277250Y0223500D01*
X0277250Y0224501D02*
X0276249Y0225502D01*
X0275248Y0226003D01*
X0275749Y0233000D02*
X0276750Y0233000D01*
X0277250Y0233500D01*
X0277250Y0234501D02*
X0276249Y0235002D01*
X0275749Y0235002D01*
X0275248Y0234501D01*
X0275248Y0233500D01*
X0275749Y0233000D01*
X0277250Y0234501D02*
X0277250Y0236003D01*
X0275248Y0236003D01*
X0279472Y0236003D02*
X0279472Y0233000D01*
X0280473Y0233000D02*
X0278471Y0233000D01*
X0280473Y0235002D02*
X0279472Y0236003D01*
X0279472Y0243000D02*
X0279472Y0246003D01*
X0280473Y0245002D01*
X0280473Y0243000D02*
X0278471Y0243000D01*
X0277250Y0244501D02*
X0275248Y0244501D01*
X0275749Y0243000D02*
X0275749Y0246003D01*
X0277250Y0244501D01*
X0261972Y0278500D02*
X0261972Y0281503D01*
X0262973Y0281503D02*
X0260971Y0281503D01*
X0259750Y0281503D02*
X0257748Y0278500D01*
X0259750Y0278500D02*
X0257748Y0281503D01*
X0259500Y0155752D02*
X0259500Y0153750D01*
X0261502Y0155752D01*
X0262002Y0155752D01*
X0262503Y0155251D01*
X0262503Y0154250D01*
X0262002Y0153750D01*
X0262002Y0152529D02*
X0262503Y0152029D01*
X0262503Y0151028D01*
X0262002Y0150527D01*
X0262002Y0152529D02*
X0261502Y0152529D01*
X0259500Y0150527D01*
X0259500Y0152529D01*
X0252503Y0152029D02*
X0252503Y0151028D01*
X0252002Y0150527D01*
X0252503Y0152029D02*
X0252002Y0152529D01*
X0251502Y0152529D01*
X0249500Y0150527D01*
X0249500Y0152529D01*
X0251001Y0153750D02*
X0251001Y0155752D01*
X0249500Y0155251D02*
X0252503Y0155251D01*
X0251001Y0153750D01*
X0242503Y0152029D02*
X0242503Y0151028D01*
X0242002Y0150527D01*
X0242503Y0152029D02*
X0242002Y0152529D01*
X0241502Y0152529D01*
X0239500Y0150527D01*
X0239500Y0152529D01*
X0240000Y0153750D02*
X0239500Y0154250D01*
X0239500Y0155251D01*
X0240000Y0155752D01*
X0240501Y0155752D01*
X0241001Y0155251D01*
X0241001Y0153750D01*
X0240000Y0153750D01*
X0241001Y0153750D02*
X0242002Y0154751D01*
X0242503Y0155752D01*
X0232503Y0155251D02*
X0232002Y0155752D01*
X0231502Y0155752D01*
X0231001Y0155251D01*
X0231001Y0154250D01*
X0231502Y0153750D01*
X0232002Y0153750D01*
X0232503Y0154250D01*
X0232503Y0155251D01*
X0231001Y0155251D02*
X0230501Y0155752D01*
X0230000Y0155752D01*
X0229500Y0155251D01*
X0229500Y0154250D01*
X0230000Y0153750D01*
X0230501Y0153750D01*
X0231001Y0154250D01*
X0231502Y0152529D02*
X0229500Y0150527D01*
X0229500Y0152529D01*
X0231502Y0152529D02*
X0232002Y0152529D01*
X0232503Y0152029D01*
X0232503Y0151028D01*
X0232002Y0150527D01*
X0222503Y0151028D02*
X0222503Y0152029D01*
X0222002Y0152529D01*
X0221502Y0152529D01*
X0221001Y0152029D01*
X0220501Y0152529D01*
X0220000Y0152529D01*
X0219500Y0152029D01*
X0219500Y0151028D01*
X0220000Y0150527D01*
X0221001Y0151528D02*
X0221001Y0152029D01*
X0222002Y0150527D02*
X0222503Y0151028D01*
X0222002Y0153750D02*
X0222503Y0154250D01*
X0222503Y0155251D01*
X0222002Y0155752D01*
X0220000Y0153750D01*
X0219500Y0154250D01*
X0219500Y0155251D01*
X0220000Y0155752D01*
X0222002Y0155752D01*
X0222002Y0153750D02*
X0220000Y0153750D01*
X0212503Y0154250D02*
X0212002Y0153750D01*
X0212503Y0154250D02*
X0212503Y0155251D01*
X0212002Y0155752D01*
X0211502Y0155752D01*
X0209500Y0153750D01*
X0209500Y0155752D01*
X0210000Y0152529D02*
X0209500Y0152029D01*
X0209500Y0151028D01*
X0210000Y0150527D01*
X0211001Y0151528D02*
X0211001Y0152029D01*
X0210501Y0152529D01*
X0210000Y0152529D01*
X0211001Y0152029D02*
X0211502Y0152529D01*
X0212002Y0152529D01*
X0212503Y0152029D01*
X0212503Y0151028D01*
X0212002Y0150527D01*
X0202503Y0151028D02*
X0202503Y0152029D01*
X0202002Y0152529D01*
X0201502Y0152529D01*
X0201001Y0152029D01*
X0200501Y0152529D01*
X0200000Y0152529D01*
X0199500Y0152029D01*
X0199500Y0151028D01*
X0200000Y0150527D01*
X0201001Y0151528D02*
X0201001Y0152029D01*
X0201001Y0153750D02*
X0201001Y0155752D01*
X0199500Y0155251D02*
X0202503Y0155251D01*
X0201001Y0153750D01*
X0202503Y0151028D02*
X0202002Y0150527D01*
X0192503Y0151028D02*
X0192503Y0152029D01*
X0192002Y0152529D01*
X0191502Y0152529D01*
X0191001Y0152029D01*
X0190501Y0152529D01*
X0190000Y0152529D01*
X0189500Y0152029D01*
X0189500Y0151028D01*
X0190000Y0150527D01*
X0191001Y0151528D02*
X0191001Y0152029D01*
X0191001Y0153750D02*
X0191001Y0155251D01*
X0190501Y0155752D01*
X0190000Y0155752D01*
X0189500Y0155251D01*
X0189500Y0154250D01*
X0190000Y0153750D01*
X0191001Y0153750D01*
X0192002Y0154751D01*
X0192503Y0155752D01*
X0192503Y0151028D02*
X0192002Y0150527D01*
X0182503Y0151028D02*
X0182503Y0152029D01*
X0182002Y0152529D01*
X0181502Y0152529D01*
X0181001Y0152029D01*
X0180501Y0152529D01*
X0180000Y0152529D01*
X0179500Y0152029D01*
X0179500Y0151028D01*
X0180000Y0150527D01*
X0181001Y0151528D02*
X0181001Y0152029D01*
X0180501Y0153750D02*
X0181001Y0154250D01*
X0181001Y0155251D01*
X0180501Y0155752D01*
X0180000Y0155752D01*
X0179500Y0155251D01*
X0179500Y0154250D01*
X0180000Y0153750D01*
X0180501Y0153750D01*
X0181001Y0154250D02*
X0181502Y0153750D01*
X0182002Y0153750D01*
X0182503Y0154250D01*
X0182503Y0155251D01*
X0182002Y0155752D01*
X0181502Y0155752D01*
X0181001Y0155251D01*
X0182503Y0151028D02*
X0182002Y0150527D01*
X0172503Y0152029D02*
X0171001Y0150527D01*
X0171001Y0152529D01*
X0170000Y0153750D02*
X0172002Y0155752D01*
X0170000Y0155752D01*
X0169500Y0155251D01*
X0169500Y0154250D01*
X0170000Y0153750D01*
X0172002Y0153750D01*
X0172503Y0154250D01*
X0172503Y0155251D01*
X0172002Y0155752D01*
X0172503Y0152029D02*
X0169500Y0152029D01*
X0162503Y0152029D02*
X0161001Y0150527D01*
X0161001Y0152529D01*
X0162002Y0153750D02*
X0162503Y0154250D01*
X0162503Y0155251D01*
X0162002Y0155752D01*
X0161502Y0155752D01*
X0159500Y0153750D01*
X0159500Y0155752D01*
X0159500Y0152029D02*
X0162503Y0152029D01*
X0152503Y0152029D02*
X0151001Y0150527D01*
X0151001Y0152529D01*
X0151001Y0153750D02*
X0151001Y0155752D01*
X0149500Y0155251D02*
X0152503Y0155251D01*
X0151001Y0153750D01*
X0149500Y0152029D02*
X0152503Y0152029D01*
X0142503Y0152029D02*
X0141001Y0150527D01*
X0141001Y0152529D01*
X0141001Y0153750D02*
X0141001Y0155251D01*
X0140501Y0155752D01*
X0140000Y0155752D01*
X0139500Y0155251D01*
X0139500Y0154250D01*
X0140000Y0153750D01*
X0141001Y0153750D01*
X0142002Y0154751D01*
X0142503Y0155752D01*
X0142503Y0152029D02*
X0139500Y0152029D01*
X0132503Y0152029D02*
X0131001Y0150527D01*
X0131001Y0152529D01*
X0130501Y0153750D02*
X0131001Y0154250D01*
X0131001Y0155251D01*
X0130501Y0155752D01*
X0130000Y0155752D01*
X0129500Y0155251D01*
X0129500Y0154250D01*
X0130000Y0153750D01*
X0130501Y0153750D01*
X0131001Y0154250D02*
X0131502Y0153750D01*
X0132002Y0153750D01*
X0132503Y0154250D01*
X0132503Y0155251D01*
X0132002Y0155752D01*
X0131502Y0155752D01*
X0131001Y0155251D01*
X0129500Y0152029D02*
X0132503Y0152029D01*
X0122503Y0151972D02*
X0122503Y0149970D01*
X0121001Y0149970D01*
X0121502Y0150971D01*
X0121502Y0151472D01*
X0121001Y0151972D01*
X0120000Y0151972D01*
X0119500Y0151472D01*
X0119500Y0150471D01*
X0120000Y0149970D01*
X0120000Y0153193D02*
X0122002Y0155195D01*
X0120000Y0155195D01*
X0119500Y0154694D01*
X0119500Y0153694D01*
X0120000Y0153193D01*
X0122002Y0153193D01*
X0122503Y0153694D01*
X0122503Y0154694D01*
X0122002Y0155195D01*
X0121502Y0156416D02*
X0122503Y0157417D01*
X0122503Y0158564D02*
X0121502Y0159565D01*
X0122503Y0160566D01*
X0119500Y0160566D01*
X0119500Y0161787D02*
X0119500Y0162788D01*
X0119500Y0162288D02*
X0122503Y0162288D01*
X0122503Y0162788D02*
X0122503Y0161787D01*
X0122002Y0163936D02*
X0121502Y0163936D01*
X0121001Y0164436D01*
X0121001Y0165437D01*
X0120501Y0165937D01*
X0120000Y0165937D01*
X0119500Y0165437D01*
X0119500Y0164436D01*
X0120000Y0163936D01*
X0122002Y0163936D02*
X0122503Y0164436D01*
X0122503Y0165437D01*
X0122002Y0165937D01*
X0122002Y0167158D02*
X0120000Y0167158D01*
X0119500Y0167659D01*
X0119500Y0168660D01*
X0120000Y0169160D01*
X0122002Y0169160D01*
X0122503Y0168660D01*
X0122503Y0167659D01*
X0122002Y0167158D01*
X0122503Y0170381D02*
X0121502Y0171382D01*
X0120501Y0171382D01*
X0119500Y0170381D01*
X0112503Y0168307D02*
X0111502Y0169308D01*
X0110501Y0169308D01*
X0109500Y0168307D01*
X0109500Y0167086D02*
X0111001Y0165585D01*
X0110501Y0165084D02*
X0112503Y0167086D01*
X0112503Y0165084D02*
X0109500Y0165084D01*
X0110000Y0163863D02*
X0109500Y0163363D01*
X0109500Y0162362D01*
X0110000Y0161861D01*
X0112002Y0161861D01*
X0112503Y0162362D01*
X0112503Y0163363D01*
X0112002Y0163863D01*
X0112002Y0160640D02*
X0112503Y0160140D01*
X0112503Y0159139D01*
X0112002Y0158639D01*
X0111502Y0158639D01*
X0111001Y0159139D01*
X0111001Y0160140D01*
X0110501Y0160640D01*
X0110000Y0160640D01*
X0109500Y0160140D01*
X0109500Y0159139D01*
X0110000Y0158639D01*
X0109500Y0157491D02*
X0110501Y0156490D01*
X0111502Y0156490D01*
X0112503Y0157491D01*
X0112002Y0155269D02*
X0112503Y0154769D01*
X0112503Y0153768D01*
X0112002Y0153267D01*
X0112503Y0152046D02*
X0112503Y0150045D01*
X0111001Y0150045D01*
X0111502Y0151045D01*
X0111502Y0151546D01*
X0111001Y0152046D01*
X0110000Y0152046D01*
X0109500Y0151546D01*
X0109500Y0150545D01*
X0110000Y0150045D01*
X0109500Y0153267D02*
X0111502Y0155269D01*
X0112002Y0155269D01*
X0109500Y0155269D02*
X0109500Y0153267D01*
X0105003Y0152639D02*
X0102000Y0154640D01*
X0105003Y0154640D01*
X0105003Y0155861D02*
X0105003Y0157363D01*
X0104502Y0157863D01*
X0102500Y0157863D01*
X0102000Y0157363D01*
X0102000Y0155861D01*
X0105003Y0155861D01*
X0105003Y0152639D02*
X0102000Y0152639D01*
X0102500Y0151418D02*
X0103501Y0151418D01*
X0103501Y0150417D01*
X0102500Y0151418D02*
X0102000Y0150917D01*
X0102000Y0149916D01*
X0102500Y0149416D01*
X0104502Y0149416D01*
X0105003Y0149916D01*
X0105003Y0150917D01*
X0104502Y0151418D01*
X0099270Y0153000D02*
X0099270Y0155002D01*
X0098269Y0156003D01*
X0097268Y0155002D01*
X0097268Y0153000D01*
X0096047Y0153000D02*
X0095046Y0153000D01*
X0095547Y0153000D02*
X0095547Y0156003D01*
X0096047Y0156003D02*
X0095046Y0156003D01*
X0093899Y0156003D02*
X0091897Y0153000D01*
X0091897Y0156003D01*
X0090676Y0155002D02*
X0089675Y0156003D01*
X0089675Y0153000D01*
X0090676Y0153000D02*
X0088674Y0153000D01*
X0087453Y0153500D02*
X0086953Y0153000D01*
X0085952Y0153000D01*
X0085451Y0153500D01*
X0085451Y0154501D01*
X0085952Y0155002D01*
X0086452Y0155002D01*
X0087453Y0154501D01*
X0087453Y0156003D01*
X0085451Y0156003D01*
X0085952Y0163000D02*
X0085952Y0166003D01*
X0087453Y0164501D01*
X0085451Y0164501D01*
X0088674Y0163000D02*
X0090676Y0163000D01*
X0089675Y0163000D02*
X0089675Y0166003D01*
X0090676Y0165002D01*
X0091897Y0166003D02*
X0091897Y0163000D01*
X0093899Y0166003D01*
X0093899Y0163000D01*
X0095046Y0163000D02*
X0096047Y0163000D01*
X0095547Y0163000D02*
X0095547Y0166003D01*
X0096047Y0166003D02*
X0095046Y0166003D01*
X0097268Y0165002D02*
X0097268Y0163000D01*
X0097268Y0164501D02*
X0099270Y0164501D01*
X0099270Y0165002D02*
X0098269Y0166003D01*
X0097268Y0165002D01*
X0099270Y0165002D02*
X0099270Y0163000D01*
X0099270Y0154501D02*
X0097268Y0154501D01*
X0093899Y0153000D02*
X0093899Y0156003D01*
X0093899Y0173000D02*
X0093899Y0176003D01*
X0091897Y0173000D01*
X0091897Y0176003D01*
X0090676Y0175002D02*
X0089675Y0176003D01*
X0089675Y0173000D01*
X0090676Y0173000D02*
X0088674Y0173000D01*
X0087453Y0173500D02*
X0086953Y0173000D01*
X0085952Y0173000D01*
X0085451Y0173500D01*
X0085451Y0174001D01*
X0085952Y0174501D01*
X0086452Y0174501D01*
X0085952Y0174501D02*
X0085451Y0175002D01*
X0085451Y0175502D01*
X0085952Y0176003D01*
X0086953Y0176003D01*
X0087453Y0175502D01*
X0095046Y0176003D02*
X0096047Y0176003D01*
X0095547Y0176003D02*
X0095547Y0173000D01*
X0096047Y0173000D02*
X0095046Y0173000D01*
X0097268Y0173000D02*
X0097268Y0175002D01*
X0098269Y0176003D01*
X0099270Y0175002D01*
X0099270Y0173000D01*
X0099270Y0174501D02*
X0097268Y0174501D01*
X0119500Y0158564D02*
X0122503Y0158564D01*
X0121502Y0156416D02*
X0120501Y0156416D01*
X0119500Y0157417D01*
X0119252Y0130602D02*
X0118251Y0130602D01*
X0117250Y0129601D01*
X0117250Y0128454D02*
X0117250Y0127453D01*
X0117250Y0127953D02*
X0120253Y0127953D01*
X0120253Y0127453D02*
X0120253Y0128454D01*
X0120253Y0129601D02*
X0119252Y0130602D01*
X0122500Y0130529D02*
X0122500Y0128527D01*
X0122500Y0129528D02*
X0125503Y0129528D01*
X0124502Y0128527D01*
X0124001Y0127306D02*
X0124502Y0126806D01*
X0124502Y0126305D01*
X0124001Y0125305D01*
X0125503Y0125305D01*
X0125503Y0127306D01*
X0124001Y0127306D02*
X0123000Y0127306D01*
X0122500Y0126806D01*
X0122500Y0125805D01*
X0123000Y0125305D01*
X0120253Y0125732D02*
X0120253Y0124731D01*
X0119752Y0124230D01*
X0119252Y0124230D01*
X0118751Y0124731D01*
X0118751Y0125732D01*
X0118251Y0126232D01*
X0117750Y0126232D01*
X0117250Y0125732D01*
X0117250Y0124731D01*
X0117750Y0124230D01*
X0117750Y0123009D02*
X0119752Y0123009D01*
X0120253Y0122509D01*
X0120253Y0121508D01*
X0119752Y0121007D01*
X0117750Y0121007D01*
X0117250Y0121508D01*
X0117250Y0122509D01*
X0117750Y0123009D01*
X0117250Y0119786D02*
X0120253Y0119786D01*
X0119252Y0118786D01*
X0120253Y0117785D01*
X0117250Y0117785D01*
X0117250Y0116637D02*
X0118251Y0115636D01*
X0119252Y0115636D01*
X0120253Y0116637D01*
X0120253Y0125732D02*
X0119752Y0126232D01*
X0129500Y0126250D02*
X0129500Y0127251D01*
X0130000Y0127752D01*
X0132002Y0127752D01*
X0132503Y0127251D01*
X0132503Y0126250D01*
X0132002Y0125750D01*
X0131502Y0125750D01*
X0131001Y0126250D01*
X0131001Y0127752D01*
X0129500Y0126250D02*
X0130000Y0125750D01*
X0131001Y0124529D02*
X0131001Y0122527D01*
X0132503Y0124029D01*
X0129500Y0124029D01*
X0139500Y0124029D02*
X0142503Y0124029D01*
X0141001Y0122527D01*
X0141001Y0124529D01*
X0140000Y0125750D02*
X0139500Y0125750D01*
X0140000Y0125750D02*
X0142002Y0127752D01*
X0142503Y0127752D01*
X0142503Y0125750D01*
X0149500Y0126250D02*
X0150000Y0125750D01*
X0149500Y0126250D02*
X0149500Y0127251D01*
X0150000Y0127752D01*
X0151001Y0127752D01*
X0151502Y0127251D01*
X0151502Y0126751D01*
X0151001Y0125750D01*
X0152503Y0125750D01*
X0152503Y0127752D01*
X0151001Y0124529D02*
X0151001Y0122527D01*
X0152503Y0124029D01*
X0149500Y0124029D01*
X0159500Y0124029D02*
X0162503Y0124029D01*
X0161001Y0122527D01*
X0161001Y0124529D01*
X0160000Y0125750D02*
X0159500Y0126250D01*
X0159500Y0127251D01*
X0160000Y0127752D01*
X0160501Y0127752D01*
X0161001Y0127251D01*
X0161001Y0126751D01*
X0161001Y0127251D02*
X0161502Y0127752D01*
X0162002Y0127752D01*
X0162503Y0127251D01*
X0162503Y0126250D01*
X0162002Y0125750D01*
X0169500Y0125750D02*
X0169500Y0127752D01*
X0169500Y0126751D02*
X0172503Y0126751D01*
X0171502Y0125750D01*
X0171001Y0124529D02*
X0171001Y0122527D01*
X0172503Y0124029D01*
X0169500Y0124029D01*
X0179500Y0124029D02*
X0179500Y0123028D01*
X0180000Y0122527D01*
X0181001Y0123528D02*
X0181001Y0124029D01*
X0180501Y0124529D01*
X0180000Y0124529D01*
X0179500Y0124029D01*
X0181001Y0124029D02*
X0181502Y0124529D01*
X0182002Y0124529D01*
X0182503Y0124029D01*
X0182503Y0123028D01*
X0182002Y0122527D01*
X0182002Y0125750D02*
X0181502Y0125750D01*
X0181001Y0126250D01*
X0181001Y0127752D01*
X0180000Y0127752D02*
X0182002Y0127752D01*
X0182503Y0127251D01*
X0182503Y0126250D01*
X0182002Y0125750D01*
X0180000Y0125750D02*
X0179500Y0126250D01*
X0179500Y0127251D01*
X0180000Y0127752D01*
X0189500Y0125750D02*
X0190000Y0125750D01*
X0192002Y0127752D01*
X0192503Y0127752D01*
X0192503Y0125750D01*
X0192002Y0124529D02*
X0191502Y0124529D01*
X0191001Y0124029D01*
X0190501Y0124529D01*
X0190000Y0124529D01*
X0189500Y0124029D01*
X0189500Y0123028D01*
X0190000Y0122527D01*
X0191001Y0123528D02*
X0191001Y0124029D01*
X0192002Y0124529D02*
X0192503Y0124029D01*
X0192503Y0123028D01*
X0192002Y0122527D01*
X0199500Y0123028D02*
X0199500Y0124029D01*
X0200000Y0124529D01*
X0200501Y0124529D01*
X0201001Y0124029D01*
X0201001Y0123528D01*
X0201001Y0124029D02*
X0201502Y0124529D01*
X0202002Y0124529D01*
X0202503Y0124029D01*
X0202503Y0123028D01*
X0202002Y0122527D01*
X0200000Y0122527D02*
X0199500Y0123028D01*
X0200000Y0125750D02*
X0199500Y0126250D01*
X0199500Y0127251D01*
X0200000Y0127752D01*
X0201001Y0127752D01*
X0201502Y0127251D01*
X0201502Y0126751D01*
X0201001Y0125750D01*
X0202503Y0125750D01*
X0202503Y0127752D01*
X0209500Y0127251D02*
X0209500Y0126250D01*
X0210000Y0125750D01*
X0210000Y0124529D02*
X0209500Y0124029D01*
X0209500Y0123028D01*
X0210000Y0122527D01*
X0211001Y0123528D02*
X0211001Y0124029D01*
X0210501Y0124529D01*
X0210000Y0124529D01*
X0211001Y0124029D02*
X0211502Y0124529D01*
X0212002Y0124529D01*
X0212503Y0124029D01*
X0212503Y0123028D01*
X0212002Y0122527D01*
X0212002Y0125750D02*
X0212503Y0126250D01*
X0212503Y0127251D01*
X0212002Y0127752D01*
X0211502Y0127752D01*
X0211001Y0127251D01*
X0210501Y0127752D01*
X0210000Y0127752D01*
X0209500Y0127251D01*
X0211001Y0127251D02*
X0211001Y0126751D01*
X0219500Y0126751D02*
X0222503Y0126751D01*
X0221502Y0125750D01*
X0221502Y0124529D02*
X0221001Y0124029D01*
X0220501Y0124529D01*
X0220000Y0124529D01*
X0219500Y0124029D01*
X0219500Y0123028D01*
X0220000Y0122527D01*
X0221001Y0123528D02*
X0221001Y0124029D01*
X0221502Y0124529D02*
X0222002Y0124529D01*
X0222503Y0124029D01*
X0222503Y0123028D01*
X0222002Y0122527D01*
X0219500Y0125750D02*
X0219500Y0127752D01*
X0228748Y0128002D02*
X0229249Y0128503D01*
X0230250Y0128503D01*
X0230750Y0128002D01*
X0230750Y0127502D01*
X0230250Y0127001D01*
X0228748Y0127001D01*
X0228748Y0126000D02*
X0228748Y0128002D01*
X0228748Y0126000D02*
X0229249Y0125500D01*
X0230250Y0125500D01*
X0230750Y0126000D01*
X0231971Y0125500D02*
X0233973Y0125500D01*
X0231971Y0127502D01*
X0231971Y0128002D01*
X0232471Y0128503D01*
X0233472Y0128503D01*
X0233973Y0128002D01*
X0238748Y0128002D02*
X0240750Y0126000D01*
X0240750Y0125500D01*
X0241971Y0125500D02*
X0243973Y0125500D01*
X0241971Y0127502D01*
X0241971Y0128002D01*
X0242471Y0128503D01*
X0243472Y0128503D01*
X0243973Y0128002D01*
X0240750Y0128503D02*
X0238748Y0128503D01*
X0238748Y0128002D01*
X0248748Y0128503D02*
X0250750Y0128503D01*
X0250750Y0127001D01*
X0249749Y0127502D01*
X0249249Y0127502D01*
X0248748Y0127001D01*
X0248748Y0126000D01*
X0249249Y0125500D01*
X0250250Y0125500D01*
X0250750Y0126000D01*
X0251971Y0125500D02*
X0253973Y0125500D01*
X0251971Y0127502D01*
X0251971Y0128002D01*
X0252471Y0128503D01*
X0253472Y0128503D01*
X0253973Y0128002D01*
X0258748Y0128002D02*
X0258748Y0127502D01*
X0259249Y0127001D01*
X0258748Y0126501D01*
X0258748Y0126000D01*
X0259249Y0125500D01*
X0260250Y0125500D01*
X0260750Y0126000D01*
X0261971Y0125500D02*
X0263973Y0125500D01*
X0261971Y0127502D01*
X0261971Y0128002D01*
X0262471Y0128503D01*
X0263472Y0128503D01*
X0263973Y0128002D01*
X0260750Y0128002D02*
X0260250Y0128503D01*
X0259249Y0128503D01*
X0258748Y0128002D01*
X0259249Y0127001D02*
X0259749Y0127001D01*
X0112503Y0127251D02*
X0112002Y0127752D01*
X0111502Y0127752D01*
X0111001Y0127251D01*
X0110501Y0127752D01*
X0110000Y0127752D01*
X0109500Y0127251D01*
X0109500Y0126250D01*
X0110000Y0125750D01*
X0110000Y0124529D02*
X0109500Y0124029D01*
X0109500Y0123028D01*
X0110000Y0122527D01*
X0111001Y0122527D02*
X0111502Y0123528D01*
X0111502Y0124029D01*
X0111001Y0124529D01*
X0110000Y0124529D01*
X0111001Y0122527D02*
X0112503Y0122527D01*
X0112503Y0124529D01*
X0112002Y0125750D02*
X0112503Y0126250D01*
X0112503Y0127251D01*
X0111001Y0127251D02*
X0111001Y0126751D01*
X0102503Y0127363D02*
X0102503Y0125861D01*
X0099500Y0125861D01*
X0099500Y0127363D01*
X0100000Y0127863D01*
X0102002Y0127863D01*
X0102503Y0127363D01*
X0102503Y0124640D02*
X0099500Y0124640D01*
X0102503Y0122639D01*
X0099500Y0122639D01*
X0100000Y0121418D02*
X0101001Y0121418D01*
X0101001Y0120417D01*
X0100000Y0121418D02*
X0099500Y0120917D01*
X0099500Y0119916D01*
X0100000Y0119416D01*
X0102002Y0119416D01*
X0102503Y0119916D01*
X0102503Y0120917D01*
X0102002Y0121418D01*
D13*
X0257142Y0264500D02*
X0262142Y0267000D01*
X0259642Y0264500D01*
X0262142Y0264500D01*
X0262142Y0262000D01*
X0259642Y0264500D01*
X0262142Y0264500D02*
X0262142Y0267000D01*
X0262142Y0262000D02*
X0257142Y0264500D01*
X0257358Y0272000D02*
X0259858Y0274500D01*
X0257358Y0274500D01*
X0257358Y0277000D01*
X0259858Y0274500D01*
X0257358Y0274500D02*
X0257358Y0272000D01*
X0262358Y0274500D01*
X0257358Y0277000D01*
D14*
X0101398Y0026346D02*
X0101398Y0019654D01*
X0105531Y0019654D01*
X0109469Y0019654D02*
X0113602Y0019654D01*
X0113602Y0026346D01*
X0109469Y0026346D01*
X0105531Y0026346D02*
X0101398Y0026346D01*
X0101398Y0084654D02*
X0101398Y0091346D01*
X0105531Y0091346D01*
X0109469Y0091346D02*
X0113602Y0091346D01*
X0113602Y0084654D01*
X0109469Y0084654D01*
X0105531Y0084654D02*
X0101398Y0084654D01*
X0151398Y0086154D02*
X0151398Y0092846D01*
X0155531Y0092846D01*
X0159469Y0092846D02*
X0163602Y0092846D01*
X0163602Y0086154D01*
X0159469Y0086154D01*
X0155531Y0086154D02*
X0151398Y0086154D01*
X0201398Y0026346D02*
X0205531Y0026346D01*
X0209469Y0026346D02*
X0213602Y0026346D01*
X0213602Y0019654D01*
X0209469Y0019654D01*
X0205531Y0019654D02*
X0201398Y0019654D01*
X0201398Y0026346D01*
X0251398Y0086154D02*
X0251398Y0092846D01*
X0255531Y0092846D01*
X0259469Y0092846D02*
X0263602Y0092846D01*
X0263602Y0086154D01*
X0259469Y0086154D01*
X0255531Y0086154D02*
X0251398Y0086154D01*
M02*
